<svg version="1.1" id="Layer_1" xmlns="http://www.w3.org/2000/svg" xmlns:xlink="http://www.w3.org/1999/xlink" x="0px" y="0px"
	 width="100%" viewBox="0 0 512 512" enable-background="new 0 0 512 512" xml:space="preserve">
<path fill="#000000" opacity="1.000000" stroke="none" 
	d="
M194.000000,513.000000 
	C129.698166,513.000000 65.396317,513.000000 1.047240,513.000000 
	C1.047240,342.448395 1.047240,171.896759 1.047240,1.000000 
	C63.687138,1.000000 126.374908,1.000000 189.820618,1.304402 
	C187.927429,5.700265 184.602798,7.394814 179.319733,7.179496 
	C166.014420,6.637225 152.667419,6.812332 139.348724,7.152990 
	C136.572327,7.224004 133.172958,8.563139 131.210907,10.489439 
	C121.869347,19.660730 112.923790,29.235443 103.840210,38.669376 
	C101.949554,40.632938 100.492516,42.152771 96.913200,41.228760 
	C91.663071,39.873421 86.169571,45.286034 86.002289,50.799652 
	C85.854935,55.656460 90.202995,59.900021 95.429192,59.999985 
	C101.658470,60.119133 107.029022,55.877720 105.693413,50.493118 
	C104.592484,46.054665 106.992302,44.578224 109.135475,42.412304 
	C117.570984,33.887302 126.173317,25.525389 134.509415,16.905359 
	C136.672256,14.668860 138.826828,13.902179 141.853638,13.935501 
	C155.345993,14.084039 168.841171,14.042452 182.334702,13.962436 
	C184.884323,13.947316 186.761307,14.188067 188.383865,16.722870 
	C191.003235,20.814974 195.877975,21.149000 199.468399,19.563879 
	C202.716080,18.130075 206.344452,14.909385 204.924423,10.118039 
	C203.990753,6.967708 202.333328,4.031884 201.000000,1.000000 
	C238.354233,1.000000 275.708466,1.000000 313.819855,1.303948 
	C307.911438,6.906484 306.924530,12.037873 311.595398,17.110683 
	C316.079315,21.980450 321.364105,21.269772 326.995819,15.281553 
	C327.787994,14.439255 329.439575,14.060541 330.696808,14.053087 
	C344.845154,13.969213 358.995697,13.898994 373.141235,14.114880 
	C375.137146,14.145340 377.562714,15.253512 379.018524,16.660477 
	C387.872833,25.217688 396.402954,34.110664 405.270142,42.654018 
	C407.977081,45.262096 409.461670,47.843418 409.051819,51.662186 
	C408.606964,55.807323 410.901337,58.810390 414.657715,59.732990 
	C418.675232,60.719727 423.010284,60.566261 425.820404,56.609604 
	C428.092377,53.410698 428.853363,50.008511 426.735291,46.239582 
	C424.464752,42.199295 420.960754,41.072315 416.657593,40.922119 
	C415.032349,40.865391 413.000732,40.340569 411.899750,39.265656 
	C401.897034,29.499723 392.136993,19.484547 382.091431,9.763988 
	C380.542542,8.265263 377.914886,7.152194 375.766846,7.119307 
	C360.955688,6.892543 346.137451,6.866550 331.325897,7.079704 
	C326.764618,7.145346 325.281647,4.416027 324.000000,1.000000 
	C386.969147,1.000000 449.938263,1.000000 512.953735,1.000000 
	C512.953735,171.552170 512.953735,342.104370 512.953735,513.000000 
	C449.312836,513.000000 385.625092,513.000000 321.176697,512.689270 
	C325.731781,504.468781 325.370392,502.222961 318.245056,495.600586 
	C317.359863,494.777893 317.068878,492.971344 317.052704,491.614105 
	C316.949310,482.950928 317.086731,474.284271 316.922241,465.622955 
	C316.891632,464.010559 316.264221,462.043762 315.208618,460.877258 
	C309.328461,454.379395 303.340881,447.969208 297.170715,441.746552 
	C292.993469,437.533752 288.455231,433.678864 284.374512,429.935455 
	C285.116699,428.575867 285.166534,428.405548 285.276367,428.294800 
	C288.911743,424.628571 292.579803,420.994263 296.183350,417.297119 
	C298.439941,414.981934 300.422150,412.501434 304.381989,413.890503 
	C305.728027,414.362732 307.776276,414.006561 309.061829,413.263977 
	C313.404480,410.755432 315.216187,405.185791 313.421295,400.918518 
	C311.945221,397.409241 306.623077,394.366180 303.104248,395.019501 
	C297.984528,395.970093 295.345459,399.531830 294.876404,404.927704 
	C294.686646,407.110626 293.605042,409.637573 292.097015,411.209564 
	C286.374573,417.174835 280.311646,422.813538 274.185059,428.759735 
	C281.323151,435.871277 287.808105,442.320801 294.279968,448.783447 
	C299.816345,454.311951 307.538818,458.960419 310.255249,465.640656 
	C313.049927,472.513275 310.919067,481.374542 311.017303,489.364716 
	C311.058380,492.704498 311.291107,495.793243 307.281464,497.555756 
	C306.024719,498.108154 305.590393,500.812286 305.029327,502.609467 
	C303.760071,506.675110 306.591583,509.651306 308.000000,513.000000 
	C274.312439,513.000000 240.624878,513.000000 206.179993,512.701538 
	C211.833191,504.939209 211.586380,502.324066 204.267746,495.627960 
	C203.377731,494.813629 203.074585,493.006744 203.054138,491.651459 
	C202.941116,484.157104 202.799866,476.651428 203.125473,469.169525 
	C203.219620,467.005890 204.308624,464.405243 205.817383,462.860260 
	C216.846237,451.566772 228.098251,440.491211 239.550415,429.077209 
	C233.968887,423.491638 228.749115,418.167877 223.410110,412.966461 
	C220.636200,410.264008 218.490784,407.734375 218.815964,403.242981 
	C219.131668,398.882721 215.756973,395.937683 211.696289,395.150604 
	C207.763794,394.388367 204.044449,395.570282 201.841888,399.592621 
	C197.587326,407.362274 201.626740,414.089172 210.535660,414.020294 
	C212.325180,414.006470 214.733398,413.555328 215.802322,414.499359 
	C220.879532,418.983185 225.592072,423.879944 230.603714,428.795685 
	C219.925873,439.500519 209.646255,449.671539 199.581635,460.051086 
	C198.179016,461.497589 197.178619,463.949036 197.114182,465.971069 
	C196.843750,474.458008 197.120346,482.961761 196.892014,491.451172 
	C196.849564,493.029053 195.785248,495.046448 194.538559,496.042328 
	C189.683533,499.920746 189.028778,505.904968 193.194061,510.747681 
	C193.679474,511.312042 193.741623,512.240417 194.000000,513.000000 
M149.920563,137.636612 
	C134.720001,152.801041 119.469780,167.916534 104.401474,183.211227 
	C103.008530,184.625107 102.118713,187.173645 102.101440,189.204742 
	C101.932915,209.014175 101.978088,228.825653 102.025291,248.636414 
	C102.031837,251.385056 101.378563,253.187378 99.026573,255.248184 
	C96.817490,257.183807 94.984779,261.205597 95.342613,264.008667 
	C95.825737,267.793182 98.150398,271.669800 103.170990,272.012756 
	C107.712669,272.322998 111.667519,271.616699 113.669685,266.813843 
	C115.532822,262.344421 114.354042,258.273621 110.875305,254.889465 
	C109.442680,253.495758 108.142174,251.163925 108.122009,249.244720 
	C107.920944,230.101868 107.923347,210.955338 108.114647,191.812286 
	C108.134499,189.825760 109.285889,187.410889 110.695221,185.950211 
	C119.015373,177.327042 128.060135,169.353714 135.878937,160.312363 
	C141.715149,153.563629 146.068512,145.532562 151.642990,137.879272 
	C151.683441,137.339615 151.723892,136.799957 151.764343,136.260300 
	C151.324783,136.575195 150.885223,136.890091 149.920563,137.636612 
M215.865097,244.994339 
	C227.942139,249.186050 239.949493,253.600098 252.142746,257.420868 
	C255.391983,258.438995 259.232635,257.886932 262.758789,257.573090 
	C264.577026,257.411255 266.265533,256.086853 268.073212,255.463333 
	C278.347107,251.919571 288.639282,248.428848 299.335571,245.268982 
	C299.482269,245.372482 299.628998,245.475998 299.340698,246.096649 
	C289.370422,258.115021 276.420502,266.461182 263.453949,274.672852 
	C260.247955,276.703186 259.624603,278.922821 260.069580,281.947357 
	C260.916595,287.705017 261.808838,293.471344 263.075867,299.146210 
	C263.857758,302.648102 263.807922,306.516205 267.427399,309.042053 
	C273.141022,313.029297 278.584198,317.404968 284.130585,321.630981 
	C296.905426,331.364563 309.667236,341.115234 322.450409,350.837860 
	C324.603577,352.475525 326.621368,353.077942 328.905731,350.668457 
	C337.802307,341.284515 346.860321,332.053650 355.759033,322.671722 
	C356.537537,321.850952 357.095459,320.256714 356.906372,319.169495 
	C354.942566,307.877808 353.641968,296.370178 350.425598,285.431671 
	C348.215637,277.915894 350.297699,273.182312 355.193909,268.237305 
	C365.817841,257.507507 376.248169,246.585938 386.758240,235.743378 
	C387.221527,235.265411 387.754028,234.839844 388.145508,234.309586 
	C389.525879,232.439911 390.293335,231.064041 388.320709,228.519897 
	C381.094299,219.199799 374.472473,209.413422 367.376312,199.988327 
	C365.205048,197.104477 364.010284,194.854950 365.846252,191.129410 
	C368.238098,186.275864 369.468719,180.860428 371.705078,175.915680 
	C372.871368,173.337006 372.512421,171.718002 371.054230,169.462646 
	C359.869965,152.164124 348.932373,134.705811 337.704346,117.436157 
	C335.848816,114.582237 334.521210,111.070671 330.042236,110.379974 
	C320.472992,108.904312 311.010986,106.743423 301.463898,105.102470 
	C300.097626,104.867638 298.276672,105.639259 297.048340,106.494209 
	C284.594177,115.162636 272.270752,124.020241 259.744385,132.581528 
	C258.469910,133.452576 255.634460,133.476059 254.326141,132.638672 
	C241.436798,124.388824 228.735092,115.846436 215.935257,107.455544 
	C213.263153,105.703857 210.845215,104.384735 207.007401,105.755989 
	C201.752365,107.633606 195.857285,107.635635 190.424164,109.125656 
	C186.030228,110.330681 181.213913,110.014282 178.023590,115.209221 
	C167.827621,131.811707 156.982147,148.018616 146.232986,164.276138 
	C142.669571,169.665604 140.290314,174.827713 144.428482,181.042999 
	C145.723831,182.988525 145.784103,185.757446 147.082520,187.699677 
	C151.232727,193.907730 148.341476,198.300629 144.401352,203.300217 
	C137.239151,212.388275 130.745056,222.002869 124.102173,231.217346 
	C126.577499,234.185196 128.633987,236.967697 131.009460,239.444260 
	C141.461060,250.340836 151.901077,261.252991 162.588028,271.916229 
	C165.255432,274.577759 165.390228,277.384094 164.789597,280.453125 
	C162.620789,291.534851 160.589294,302.659485 157.878067,313.612518 
	C156.417892,319.511475 158.043701,323.451965 162.497223,327.148041 
	C165.371857,329.533722 167.540344,332.753510 170.140793,335.489746 
	C175.951538,341.604004 181.834579,347.649567 187.459290,353.485626 
	C189.446289,352.287109 190.468674,351.789001 191.358795,351.115997 
	C209.202774,337.624420 227.099106,324.199829 244.774750,310.490814 
	C246.898788,308.843414 249.880646,307.937622 250.246216,303.700745 
	C251.017639,294.760498 253.142990,285.937103 254.715790,277.049225 
	C239.814682,268.138397 225.403976,258.902100 214.654587,245.257629 
	C214.793900,245.144348 214.933212,245.031067 215.865097,244.994339 
M315.015289,352.521912 
	C296.461151,342.268097 277.862854,332.092285 259.420410,321.641357 
	C257.549774,320.581299 256.585632,320.617340 254.957458,321.517090 
	C238.790497,330.450867 222.572861,339.292969 206.410355,348.234741 
	C202.492203,350.402405 198.724258,352.841583 194.857239,355.174011 
	C204.136398,369.705841 213.166336,383.847412 222.261444,398.091064 
	C224.530075,394.121918 226.502228,390.671448 228.727356,386.778412 
	C238.160690,395.637543 247.510757,404.418457 257.038696,413.366425 
	C266.662781,404.425110 276.059448,395.695068 285.633057,386.800629 
	C287.698822,390.506042 289.604828,393.924927 291.965057,398.158569 
	C301.499237,383.139191 310.431305,369.068298 319.441040,354.875092 
	C318.331665,354.251434 317.667175,353.851288 316.977692,353.500092 
	C316.553192,353.283905 316.090515,353.142487 315.015289,352.521912 
M422.064850,227.598434 
	C428.749756,232.277802 433.324738,228.977646 436.316650,225.086746 
	C439.151917,221.399475 437.569427,215.738190 433.347351,211.773148 
	C432.165436,210.663193 431.154358,208.744797 431.103729,207.163956 
	C430.869019,199.841873 431.203094,192.498947 430.874969,185.184067 
	C430.777832,183.017899 429.711639,180.395920 428.196960,178.867172 
	C403.811340,154.254959 379.036469,130.022446 354.962830,105.111473 
	C349.221039,99.169991 343.394073,97.009193 335.800262,98.060936 
	C334.175995,98.285889 332.658844,99.284241 329.951935,100.393723 
	C340.459564,103.496170 348.507050,107.230690 355.358124,114.509270 
	C372.362457,132.574677 390.288696,149.771835 407.826111,167.336212 
	C413.223816,172.742203 420.654144,177.348541 423.339691,183.887482 
	C426.035675,190.451797 424.163940,198.976379 423.880737,206.626572 
	C423.799866,208.811264 422.769806,211.369827 421.329559,213.018356 
	C417.042328,217.925613 416.912720,222.083099 422.064850,227.598434 
M114.500008,150.000015 
	C110.025017,154.475006 105.548264,158.948227 101.075470,163.425415 
	C95.430878,169.075531 87.545944,173.815308 84.769249,180.634323 
	C81.915131,187.643478 84.048912,196.683731 84.000122,204.835159 
	C83.999130,205.001694 83.981873,205.170547 84.002686,205.334442 
	C84.413551,208.570282 83.465195,210.709366 80.299706,212.469360 
	C76.334816,214.673843 75.707466,222.424347 78.619469,226.113358 
	C81.471054,229.725830 87.728653,230.940796 91.164627,228.241714 
	C96.122925,224.346832 98.079750,219.203552 93.952873,214.963074 
	C89.941307,210.841003 89.970268,206.675430 89.994102,201.935806 
	C90.020065,196.773285 89.820953,191.600815 90.099495,186.453232 
	C90.193893,184.708710 91.015839,182.600998 92.229820,181.379013 
	C116.874329,156.571793 141.615829,131.860809 166.384842,107.177666 
	C167.352615,106.213242 168.708435,105.490242 170.016174,105.042107 
	C174.277802,103.581772 178.601044,102.301277 183.266418,100.836731 
	C179.038757,96.913078 167.527832,96.941849 164.085129,100.382881 
	C147.714081,116.745911 131.360062,133.125992 114.500008,150.000015 
M226.499985,84.000008 
	C219.675156,77.167908 212.945389,70.235786 205.948303,63.584892 
	C204.482590,62.191689 202.048035,61.161015 200.032654,61.113216 
	C189.713547,60.868450 179.300629,61.834206 169.081543,60.794331 
	C155.514359,59.413765 144.354599,62.229946 136.455215,74.009689 
	C136.363861,74.145912 136.254044,74.326607 136.117508,74.366997 
	C134.524490,74.838081 132.803986,75.910851 131.348038,75.629578 
	C125.771606,74.552284 120.150810,78.024483 119.109001,83.598160 
	C118.298996,87.931778 123.480583,94.164673 128.455719,94.841232 
	C132.815613,95.434135 139.678970,89.941635 138.724274,85.412048 
	C137.728668,80.688316 140.561310,79.072563 142.878723,76.642731 
	C144.830826,74.595924 146.665817,72.348877 148.932465,70.718521 
	C150.760773,69.403473 153.144287,68.152130 155.301529,68.117393 
	C169.452972,67.889565 183.611710,67.887833 197.763046,68.119583 
	C199.913086,68.154785 202.545685,69.262306 204.091309,70.763306 
	C214.959503,81.317604 225.619324,92.087128 236.288223,102.844917 
	C237.384750,103.950584 239.006592,105.563118 238.838531,106.714828 
	C238.158554,111.374626 241.424850,112.402901 244.731689,114.353004 
	C245.324142,107.380867 245.844040,101.390274 239.468918,96.721962 
	C234.821426,93.318748 231.122055,88.620766 226.499985,84.000008 
M282.000000,89.500000 
	C279.293549,92.208694 276.897827,95.357697 273.815063,97.533127 
	C267.665131,101.872986 268.893738,107.701439 269.230896,114.058243 
	C272.525879,110.956512 277.165314,109.651413 276.321686,104.292343 
	C276.229462,103.706665 277.593109,102.883507 278.293549,102.182564 
	C288.881927,91.586945 299.405731,80.924828 310.141846,70.481033 
	C311.575439,69.086472 314.072021,68.154839 316.101410,68.108528 
	C326.417786,67.873131 336.826752,68.825241 347.041779,67.781120 
	C358.570953,66.602692 367.340332,69.938934 373.784119,79.390411 
	C374.714325,80.754761 375.239441,82.657608 375.270905,84.324120 
	C375.373291,89.750099 378.836761,93.792137 383.931641,93.999947 
	C390.087280,94.251022 394.510406,90.832893 394.995148,85.450279 
	C395.405701,80.891197 389.863739,74.011703 385.430511,75.312866 
	C379.172028,77.149742 376.841858,73.233414 373.576324,70.058525 
	C371.310394,67.855469 369.283356,65.367317 366.824036,63.417038 
	C365.305603,62.212917 363.183563,61.124249 361.319733,61.103004 
	C345.506226,60.922783 329.688629,60.909409 313.875702,61.113659 
	C311.879456,61.139442 309.449066,62.243393 307.992371,63.648643 
	C299.368439,71.967979 290.972565,80.523750 282.000000,89.500000 
M384.999969,167.499954 
	C391.122040,173.621674 397.371826,179.624191 403.276520,185.948853 
	C404.754364,187.531784 405.861206,190.143250 405.884155,192.295364 
	C406.084534,211.110825 405.958649,229.929520 406.043732,248.746735 
	C406.056793,251.632217 405.886383,253.999786 402.952972,255.626221 
	C400.231842,257.134979 399.937408,259.876190 399.902191,262.892670 
	C399.848969,267.452271 401.674652,270.523102 405.875183,271.875244 
	C410.038147,273.215302 415.894836,270.975159 417.724121,267.756653 
	C419.751099,264.190308 419.345215,257.636627 415.967743,255.771606 
	C412.586761,253.904663 413.006439,251.496002 413.005096,248.785522 
	C412.995514,229.468338 412.920349,210.150543 413.068817,190.834503 
	C413.097687,187.079712 411.937836,184.332932 409.292084,181.716293 
	C394.729980,167.314453 380.298889,152.780258 365.808319,138.306015 
	C364.787323,137.286179 363.649384,136.383438 362.565826,135.426254 
	C368.572662,146.938110 374.420013,158.466064 384.999969,167.499954 
M126.998810,123.501724 
	C135.589783,114.910568 144.861084,106.883240 152.580154,97.569466 
	C160.279327,88.279701 168.948074,84.610420 180.914169,85.709564 
	C187.069427,86.274948 192.178146,86.998474 195.773102,92.287903 
	C198.593231,96.437286 202.261841,97.485390 206.944901,95.450119 
	C206.836502,95.012199 206.860657,94.445282 206.592072,94.120285 
	C194.578552,79.583160 193.326981,79.000000 174.413147,79.000000 
	C172.748840,79.000000 171.052872,79.208473 169.426102,78.961357 
	C164.313644,78.184761 160.813004,80.495018 157.352661,84.033890 
	C143.973343,97.716805 130.380890,111.192291 116.769196,124.645241 
	C115.662361,125.739174 113.709229,126.819626 112.320770,126.632744 
	C107.551811,125.990829 102.777390,127.951591 101.022911,131.878906 
	C99.353477,135.615829 101.212914,141.914200 104.848900,144.292435 
	C108.070175,146.399414 111.727432,146.590012 114.817734,144.531479 
	C117.969139,142.432236 121.029602,139.038696 119.736359,135.190048 
	C118.579506,131.747253 119.987206,130.410599 121.912025,128.593292 
	C123.484009,127.109100 124.971886,125.535828 126.998810,123.501724 
M354.982147,91.473495 
	C366.987152,103.487930 378.906250,115.590385 391.061432,127.450882 
	C393.873779,130.195068 395.346497,132.823715 395.108459,136.874115 
	C394.814209,141.881683 399.824677,146.389526 404.489838,145.995331 
	C409.460724,145.575317 414.472717,139.983490 413.990387,135.395660 
	C413.445557,130.213242 407.163513,124.555618 402.866058,126.242142 
	C399.836670,127.431007 398.668427,126.200340 397.049164,124.579147 
	C382.695190,110.208023 368.392365,95.784912 353.913757,81.540443 
	C352.485626,80.135422 350.008759,79.189903 347.977600,79.112785 
	C340.495209,78.828743 332.994812,78.947006 325.502991,79.048172 
	C324.132050,79.066689 322.398346,79.298904 321.464417,80.137047 
	C316.066132,84.981712 310.857483,90.037720 305.584656,95.022186 
	C305.920593,95.635574 306.256531,96.248970 306.592438,96.862358 
	C309.498230,96.291794 313.731873,96.738510 315.082031,94.976158 
	C321.223846,86.959114 328.982513,84.512756 338.525482,85.972565 
	C339.827118,86.171677 341.215973,86.183258 342.512238,85.967651 
	C347.581268,85.124489 351.544403,86.760391 354.982147,91.473495 
M367.000000,298.179077 
	C366.504303,301.211761 367.685181,303.364227 369.922089,305.506073 
	C377.010834,312.293610 383.309662,320.016083 390.922546,326.118835 
	C400.746613,333.994080 405.158325,343.226593 403.107635,355.713470 
	C402.658936,358.445496 402.629089,360.610016 400.050964,362.631683 
	C394.382568,367.076569 395.482666,372.223633 398.291595,375.714691 
	C402.479401,380.919373 407.393677,381.059296 411.388855,377.933655 
	C416.606384,373.851715 418.227203,368.961121 413.279114,364.319458 
	C408.574371,359.905975 409.070709,355.381775 409.007874,350.346161 
	C408.966309,347.018524 408.779602,343.671173 409.061066,340.366974 
	C409.351349,336.958832 408.271820,334.557129 405.782623,332.144104 
	C395.988007,322.649261 386.335144,313.001587 376.877502,303.172211 
	C375.290009,301.522308 374.191193,298.713806 374.126648,296.405426 
	C373.836273,286.015076 374.000000,275.612030 374.000000,264.939026 
	C368.104248,268.099670 367.003082,269.720337 367.000824,274.782043 
	C366.997528,282.270416 367.000000,289.758759 367.000000,298.179077 
M152.000000,402.499817 
	C152.000000,381.670929 151.954620,360.841797 152.060806,340.013458 
	C152.073273,337.570648 152.920380,335.132141 153.507736,332.017181 
	C152.725311,331.269165 151.349808,329.954071 150.189667,328.844910 
	C145.569763,331.499786 144.865326,335.116943 144.900467,339.631744 
	C145.104187,365.791229 145.005753,391.953125 144.994415,418.114197 
	C144.992508,422.537140 141.114883,426.920807 137.828979,426.292847 
	C132.154800,425.208405 126.511826,429.293213 126.001411,434.854523 
	C125.542519,439.854523 129.501205,444.637817 134.397491,444.999542 
	C141.550446,445.527954 144.832092,442.509369 145.076462,435.653503 
	C145.158157,433.361511 145.379761,430.137573 146.834595,429.002899 
	C151.661026,425.238800 152.542007,420.577057 152.062469,414.991821 
	C151.735825,411.187347 152.000000,407.332184 152.000000,402.499817 
M111.489105,329.007507 
	C105.969452,332.897736 104.063026,338.151917 104.913437,344.823639 
	C105.393501,348.589844 104.941246,352.468689 105.020088,356.294464 
	C105.075233,358.970459 104.960793,360.993530 102.018875,362.736176 
	C97.839455,365.211975 97.587914,372.557587 100.862762,376.348938 
	C104.417015,380.463745 110.216904,380.859253 114.160629,377.378204 
	C119.159088,372.966064 119.113899,366.798218 115.153633,363.969757 
	C110.861458,360.904236 110.836548,357.240570 110.979195,352.980408 
	C111.084946,349.822144 110.528847,346.563873 111.133484,343.522278 
	C111.729286,340.525055 112.730034,337.093964 114.738663,334.979370 
	C124.360954,324.849487 134.464310,315.177979 144.184464,305.138092 
	C145.687576,303.585541 146.786758,300.994904 146.874756,298.835480 
	C147.192947,291.027191 146.635193,283.174896 147.129379,275.384979 
	C147.454117,270.266083 144.786606,267.804779 141.000000,265.064240 
	C141.000000,275.602509 141.176025,285.591278 140.867569,295.565094 
	C140.796661,297.858124 139.597977,300.612457 138.003448,302.279388 
	C129.494186,311.175018 120.694534,319.792908 111.489105,329.007507 
M440.000000,316.672119 
	C439.740936,322.284149 441.381714,328.023651 435.426727,332.528503 
	C431.965790,335.146637 433.648438,343.607269 437.318176,345.635651 
	C443.231201,348.903900 446.441254,348.858917 451.225037,343.196106 
	C454.197418,339.677460 453.702362,333.035828 449.730072,330.532684 
	C447.215149,328.947998 446.627808,327.293427 447.037964,324.967102 
	C449.267090,312.324463 444.940704,302.646912 434.683319,294.989227 
	C430.037476,291.520844 425.104431,287.473145 426.935822,280.224182 
	C427.053223,279.759460 426.409576,279.108215 426.133118,278.537354 
	C424.228180,274.603973 419.664795,272.810730 414.790894,274.083801 
	C410.954559,275.085876 407.704742,279.711151 408.000702,283.747864 
	C408.326843,288.196228 412.711670,293.506195 416.931213,292.755951 
	C422.298920,291.801483 424.523834,295.107269 427.430634,297.946564 
	C430.408691,300.855438 433.147766,304.038086 436.321198,306.709167 
	C439.259308,309.182220 440.586914,311.988556 440.000000,316.672119 
M133.000000,360.513977 
	C133.000015,357.016174 132.768814,353.495544 133.110184,350.031403 
	C133.253174,348.580414 134.305374,346.870209 135.470871,345.932281 
	C139.434692,342.742554 140.487106,335.735443 137.313828,331.827087 
	C133.908951,327.633484 126.791222,327.252411 122.668022,331.042969 
	C118.951607,334.459534 119.173660,340.363220 122.975403,344.553558 
	C124.219383,345.924652 125.828125,347.692413 125.866501,349.312012 
	C126.122902,360.132507 126.094856,370.963318 125.948723,381.787903 
	C125.896614,385.648315 120.354950,389.608246 116.527313,388.906372 
	C111.658997,388.013672 108.117302,390.093384 105.760216,394.687714 
	C103.667015,398.767670 105.250656,402.569214 107.810295,404.873901 
	C109.942520,406.793701 113.911949,407.430511 117.019798,407.317657 
	C120.911156,407.176331 124.152458,403.980713 123.754990,400.331635 
	C123.133621,394.626984 126.427032,391.752319 129.852692,388.744659 
	C132.312881,386.584717 133.182938,384.225525 133.068359,380.994019 
	C132.838333,374.506226 133.000000,368.004547 133.000000,360.513977 
M369.000000,343.533661 
	C368.181274,338.552155 371.560425,332.393799 364.592102,328.768707 
	C363.238831,330.340973 361.849976,331.954590 361.184784,332.727417 
	C361.869476,335.938599 362.913666,338.587494 362.925903,341.241089 
	C363.048035,367.703888 362.960846,394.167633 363.081757,420.630432 
	C363.090485,422.540771 363.749298,424.939545 365.004303,426.252197 
	C367.755157,429.129333 369.664398,431.650726 369.194122,436.188324 
	C368.615723,441.769073 373.543488,445.272461 380.065063,444.999969 
	C384.279510,444.823853 388.203094,440.143372 387.999939,435.534302 
	C387.752563,429.921967 383.208923,425.628998 377.910370,426.001221 
	C372.095001,426.409760 369.003052,423.442902 369.001892,417.421570 
	C368.997345,393.121887 369.000000,368.822205 369.000000,343.533661 
M408.998474,396.761047 
	C406.224792,389.396515 405.691986,389.045929 397.203857,389.000000 
	C391.758087,388.970520 388.015167,385.302307 388.005035,379.924561 
	C387.987122,370.433533 388.014374,360.942383 387.990173,351.451385 
	C387.983887,348.980957 388.048828,347.160614 390.792328,345.407715 
	C395.074677,342.671631 394.999298,334.853485 391.429108,330.932068 
	C388.386871,327.590546 380.376587,327.893524 377.051697,331.475891 
	C373.834137,334.942688 374.597809,342.261353 378.149963,345.743958 
	C379.527893,347.094940 380.823639,349.272919 380.874634,351.109741 
	C381.142578,360.759888 381.215820,370.428558 380.896820,380.075592 
	C380.763916,384.095856 382.009247,386.817505 384.858002,389.554230 
	C387.053406,391.663330 389.298584,394.570160 389.790466,397.420990 
	C390.731262,402.873138 394.244720,407.623322 399.149567,407.982208 
	C403.760223,408.319611 408.451111,403.368408 408.998474,396.761047 
M92.000031,128.499969 
	C93.648682,126.850487 95.348938,125.248863 96.933807,123.540215 
	C99.260338,121.031990 101.350586,119.262230 105.516685,119.787575 
	C111.815506,120.581863 116.333061,112.643585 113.747238,106.360374 
	C112.082230,102.314613 106.240631,99.708374 101.874634,101.063408 
	C97.607666,102.387703 94.747208,107.712646 95.441612,112.110382 
	C95.659714,113.491669 94.847321,115.490974 93.823341,116.541245 
	C85.453621,125.125793 76.893616,133.524506 68.475281,142.062378 
	C67.402939,143.149963 65.958366,144.861572 66.159988,146.029694 
	C66.781960,149.633133 64.433136,151.189865 62.379852,153.165817 
	C58.731354,156.676880 58.765854,163.369247 62.359200,166.838608 
	C65.567146,169.935867 72.716042,169.853867 75.811768,166.684296 
	C79.832977,162.567154 79.925812,157.466003 75.854240,153.437180 
	C74.462402,152.059937 72.664375,151.093185 70.516884,149.555862 
	C78.222588,142.007080 84.861313,135.503555 92.000031,128.499969 
M74.000038,326.029297 
	C74.000023,322.696960 73.827065,319.352509 74.058762,316.036377 
	C74.222328,313.695404 74.182358,310.729614 75.537445,309.192505 
	C80.371613,303.709015 85.721207,298.673431 90.993790,293.590820 
	C91.690720,292.919006 93.135101,292.563690 94.122566,292.727844 
	C99.821831,293.675507 104.603546,290.737976 105.905952,285.281464 
	C106.924225,281.015350 103.274818,274.561676 99.376480,274.031372 
	C92.048569,273.034485 87.245979,275.859558 87.254547,281.578552 
	C87.262001,286.559601 85.361198,289.597504 82.003433,292.547119 
	C79.505310,294.741608 77.492348,297.528015 74.865349,299.528076 
	C69.218620,303.827240 67.154778,309.129150 67.848892,316.255280 
	C68.442039,322.344757 69.298386,328.623352 62.629490,333.274292 
	C59.169426,335.687408 60.706448,340.568756 63.353153,343.747681 
	C66.018013,346.948364 69.192245,349.342773 73.914917,347.056580 
	C81.837143,343.221405 82.557091,335.385712 75.435852,329.812225 
	C74.670570,329.213257 74.465523,327.898407 74.000038,326.029297 
M106.502937,72.997948 
	C99.801292,79.699181 93.063202,86.364532 86.414307,93.117691 
	C83.362862,96.216988 80.704330,99.903564 75.420242,98.051521 
	C74.756714,97.818962 73.802124,98.161560 73.061867,98.445152 
	C68.689178,100.120331 65.936745,105.479210 67.039345,110.057182 
	C68.083900,114.394119 73.110512,117.558815 78.065147,116.998909 
	C82.547707,116.492348 85.891663,112.328125 86.050934,107.430611 
	C86.116722,105.407715 86.045067,102.728516 87.230133,101.496735 
	C96.909851,91.435387 106.844681,81.618011 116.793373,71.819298 
	C117.716980,70.909607 119.609375,69.844398 120.479774,70.210762 
	C125.014908,72.119629 128.062912,69.885628 130.574615,66.794807 
	C133.353653,63.375027 133.155029,59.497166 130.955658,55.735905 
	C128.659180,51.808544 124.294518,50.423027 119.706604,51.979515 
	C115.281723,53.480690 111.981750,58.721809 113.264061,62.105888 
	C114.405899,65.119293 113.237335,66.306908 111.603813,67.930069 
	C110.071274,69.452896 108.536743,70.973717 106.502937,72.997948 
M228.523132,50.015095 
	C230.226990,52.393280 234.207642,53.573112 232.738724,57.630394 
	C230.939499,62.599926 234.211563,65.571945 237.484680,67.624054 
	C241.070984,69.872520 245.061523,69.445969 248.510101,66.082214 
	C251.997757,62.680359 252.922607,58.763752 250.772797,54.735596 
	C248.793869,51.027592 245.386459,48.752472 240.725052,49.003685 
	C239.080276,49.092327 236.532349,49.088081 235.866669,48.117794 
	C228.694901,37.664410 218.607758,35.293888 206.860977,36.978100 
	C205.718140,37.141953 204.528275,36.943996 203.365723,37.010311 
	C199.603439,37.224915 196.442978,37.007767 193.631256,33.428867 
	C190.500671,29.444101 184.267029,30.109274 180.617355,33.869438 
	C177.102417,37.490795 177.069290,43.356339 180.542847,47.062569 
	C183.926544,50.672913 190.309418,51.672367 193.179749,47.972149 
	C196.494080,43.699535 200.416016,43.895763 204.766174,43.986225 
	C208.097092,44.055489 211.479767,44.362804 214.752075,43.919445 
	C220.405304,43.153492 224.728714,44.923416 228.523132,50.015095 
M442.099365,115.990318 
	C447.047577,111.827591 448.231812,108.285950 446.301788,103.799973 
	C444.125885,98.742348 440.050140,97.602180 435.038818,97.956757 
	C433.877167,98.038948 432.303741,97.667511 431.519043,96.895592 
	C421.552124,87.091217 411.657623,77.211815 401.877197,67.221802 
	C401.062012,66.389160 400.835663,64.581413 400.967651,63.291382 
	C401.455200,58.527313 399.408691,54.828773 395.755096,52.398666 
	C391.967010,49.879078 388.009888,51.189301 384.647705,53.886005 
	C381.799774,56.170254 380.940948,61.967010 382.926147,65.603500 
	C385.066986,69.525101 388.337921,71.257324 392.952850,70.680153 
	C394.373260,70.502525 396.375793,71.066345 397.375488,72.043747 
	C407.371155,81.816551 417.239227,91.720840 427.048157,101.681709 
	C427.834900,102.480667 428.454071,104.087265 428.237732,105.128845 
	C426.615875,112.937744 433.946991,119.788445 442.099365,115.990318 
M289.449646,37.082527 
	C285.684875,40.835686 281.989838,44.663582 278.104279,48.287205 
	C277.182220,49.147095 275.658020,49.486729 274.346893,49.776440 
	C272.009857,50.292835 269.404724,50.111881 267.305267,51.077938 
	C263.178650,52.976814 261.627655,58.329491 263.380493,62.896805 
	C264.805603,66.610275 270.372681,69.556671 274.002655,68.518677 
	C278.842346,67.134750 283.276245,62.122746 281.765472,58.344055 
	C280.277863,54.623421 282.542877,53.490898 284.102631,51.305363 
	C288.614319,44.983585 294.586121,42.875031 302.114288,43.932522 
	C305.051880,44.345169 308.100128,44.099213 311.090485,43.974537 
	C314.715881,43.823391 317.654419,44.108177 320.331329,47.529610 
	C323.483307,51.558228 329.726868,50.760815 333.740479,46.746998 
	C336.733032,43.754295 336.916290,38.126129 334.133698,34.668434 
	C330.869812,30.612644 324.022522,28.949617 321.206635,32.672150 
	C317.362610,37.753876 312.659332,36.959473 307.768890,36.991459 
	C301.944397,37.029552 296.119446,37.003651 289.449646,37.082527 
M419.920624,116.382240 
	C419.565491,115.064148 418.744476,113.673706 418.936005,112.440514 
	C419.760406,107.132240 415.879639,101.457306 410.846710,101.000862 
	C404.895752,100.461166 400.154572,104.042976 400.000092,109.195122 
	C399.785248,116.359650 403.684143,120.612686 410.559204,119.852905 
	C413.379272,119.541245 414.922089,120.321152 416.710144,122.146942 
	C423.923553,129.512772 431.315491,136.703857 438.523407,144.074966 
	C440.143463,145.731705 441.287262,147.854141 442.650299,149.762192 
	C442.035858,149.714294 441.421448,149.666382 440.807007,149.618484 
	C438.879639,153.102219 435.645020,156.493240 435.389557,160.095535 
	C435.129913,163.756912 437.409760,168.253799 442.215302,168.886551 
	C446.603638,169.464371 450.828979,169.298279 453.473755,164.243271 
	C456.016205,159.383896 454.477051,156.083923 451.214386,152.604721 
	C449.853668,151.153702 448.975891,149.217850 448.022461,147.425873 
	C447.078644,145.652115 446.728882,143.381180 445.406738,142.019394 
	C437.184418,133.550522 428.761963,125.275932 419.920624,116.382240 
M204.868622,426.418121 
	C204.595123,426.011597 204.159103,425.636871 204.072449,425.193787 
	C202.720749,418.282471 199.066483,415.730347 192.281479,417.010773 
	C187.444458,417.923553 184.984314,422.588074 185.779282,428.458435 
	C185.951035,429.726807 184.864273,431.493317 183.850891,432.540344 
	C178.070511,438.512634 172.074036,444.276123 166.309326,450.263062 
	C165.182251,451.433594 164.021683,453.333313 164.138672,454.795776 
	C164.472946,458.974518 163.317047,462.185425 159.929749,464.664612 
	C159.173492,465.218109 158.401291,466.030487 158.105515,466.885895 
	C156.464615,471.631500 158.934128,476.946106 163.670639,479.152527 
	C167.041290,480.722748 173.419312,479.038666 175.462067,476.039154 
	C178.142746,472.102753 177.395538,466.581482 173.728409,463.229248 
	C169.948166,459.773590 169.704437,455.671722 173.300446,452.200897 
	C178.877655,446.817780 184.558640,441.541229 190.255264,436.284119 
	C190.875412,435.711823 191.923203,435.202454 192.713745,435.278229 
	C199.450653,435.923981 202.466843,433.857544 204.868622,426.418121 
M349.999390,454.011017 
	C349.175873,452.674438 348.562012,451.133728 347.493286,450.035828 
	C342.268097,444.667633 336.962738,439.375336 331.597504,434.146698 
	C329.491364,432.094147 327.885529,430.461578 328.810852,426.832520 
	C329.908051,422.529449 327.107300,419.360260 323.121521,417.678528 
	C318.778778,415.846130 313.962769,416.493378 311.765778,420.210266 
	C310.092804,423.040619 310.105865,427.949341 311.369415,431.141510 
	C312.742554,434.610718 316.497681,436.681824 321.095764,435.592224 
	C322.397400,435.283783 324.443512,436.151123 325.511292,437.156006 
	C330.600525,441.945404 335.478851,446.959473 340.415436,451.910339 
	C344.255768,455.761749 344.167725,459.601837 340.188873,463.300110 
	C336.197327,467.010162 335.858673,473.260498 339.454163,476.858398 
	C343.405090,480.811981 349.218414,481.088501 353.007874,477.503052 
	C356.855896,473.862244 357.687592,466.322266 353.606018,463.622772 
	C349.868256,461.150726 349.907379,458.290131 349.999390,454.011017 
M251.970627,462.267670 
	C252.314728,461.042908 252.667252,459.820435 253.001419,458.592987 
	C254.235916,454.058289 252.136932,450.277039 248.610687,448.532990 
	C246.038727,447.260986 241.711975,447.331543 239.192429,448.696075 
	C235.748581,450.561127 232.849670,453.920258 234.246552,458.931305 
	C234.542267,459.992126 233.479950,461.633789 232.690140,462.760132 
	C229.126968,467.841766 221.826340,470.144470 221.612381,477.793274 
	C221.592850,478.491608 220.284805,479.190491 219.522034,479.825378 
	C215.079468,483.523254 214.533234,489.606262 218.287704,493.786743 
	C221.981964,497.900177 228.321838,498.123016 232.222595,494.276550 
	C236.257553,490.297852 236.183472,483.556519 231.389130,480.121429 
	C227.679810,477.463654 228.652542,475.663849 231.190247,473.288635 
	C232.646606,471.925568 234.172989,470.595612 235.401672,469.040466 
	C237.445892,466.453094 239.749008,465.660858 243.181198,465.775604 
	C245.940521,465.867889 248.766495,463.966858 251.970627,462.267670 
M286.520905,468.013824 
	C283.025146,464.431946 279.029114,461.697327 279.637878,455.213074 
	C280.036377,450.968536 275.883667,447.654846 271.045197,447.027924 
	C266.116821,446.389374 261.347137,450.481903 261.000427,455.446259 
	C260.547119,461.936310 263.931274,465.972717 269.865753,465.995361 
	C271.707092,466.002380 274.199585,465.174896 275.273956,466.071472 
	C279.264526,469.401794 282.788483,473.291290 286.655304,477.137573 
	C285.314667,478.077942 284.654297,478.537231 283.997925,479.002228 
	C280.412354,481.542175 277.987549,485.130341 279.316528,489.325958 
	C280.590973,493.349487 283.608673,496.610077 288.481720,497.002319 
	C293.099518,497.374054 296.508179,494.575867 297.715515,491.029510 
	C299.055756,487.092743 299.343048,482.201202 294.190491,479.552185 
	C293.268646,479.078308 292.026642,477.747772 292.137573,476.988800 
	C292.774078,472.633209 289.141174,471.075165 286.520905,468.013824 
M475.844727,204.999954 
	C472.435944,202.368256 468.635742,200.092896 465.780609,196.957062 
	C464.315948,195.348389 464.285828,192.226288 464.055237,189.746506 
	C463.635956,185.238983 459.623138,181.129623 455.130890,181.002014 
	C451.168732,180.889465 445.586945,185.561905 445.007050,189.476532 
	C444.384308,193.680786 448.078247,200.147949 451.982697,199.731216 
	C458.910736,198.991791 461.967133,203.651627 465.952881,207.415771 
	C467.651550,209.020035 468.454010,210.433228 468.145355,213.109238 
	C467.359070,219.926651 473.638123,225.425735 479.664551,223.738190 
	C484.990601,222.246796 487.720367,218.157257 486.997253,212.752640 
	C486.309601,207.612915 482.856567,205.015289 475.844727,204.999954 
M419.885651,254.332001 
	C422.718018,257.314270 425.484131,260.443237 430.268799,258.042053 
	C430.625214,257.863190 431.492584,257.992310 431.667633,258.267548 
	C434.685852,263.013092 442.156219,264.521240 441.141388,272.335999 
	C440.536682,276.992676 445.451111,281.680847 450.005310,281.998810 
	C454.507446,282.313141 459.315216,278.700195 459.992615,274.493530 
	C460.792236,269.527985 457.365051,262.938477 453.024384,263.301697 
	C447.039673,263.802429 444.249084,260.145874 440.380371,257.169037 
	C437.660553,255.076172 436.843781,253.453461 437.230652,250.003525 
	C437.618530,246.544388 436.656891,243.060669 432.795746,240.851318 
	C429.086456,238.728867 425.869446,238.536758 422.585144,241.000534 
	C418.135803,244.338333 416.951355,248.662323 419.885651,254.332001 
M77.009399,263.485840 
	C79.749855,261.391144 81.184792,257.397827 85.743690,257.971252 
	C90.939240,258.624756 95.583664,254.819489 95.999229,249.871033 
	C96.451920,244.480637 91.598251,239.123672 86.151611,239.002243 
	C81.284149,238.893738 77.059395,243.202637 77.022636,248.432007 
	C77.009392,250.316223 78.106560,253.138901 77.238144,253.928177 
	C73.087883,257.700226 70.638855,263.976135 63.112366,263.130829 
	C57.527378,262.503632 54.039078,266.565918 54.000023,272.393005 
	C53.963581,277.830109 57.960197,281.921143 63.384907,281.999634 
	C68.735649,282.077026 73.523445,277.830841 72.821335,272.554749 
	C72.284691,268.522034 73.768135,266.198761 77.009399,263.485840 
M45.999973,213.797241 
	C45.821041,212.550171 45.227180,211.184967 45.542236,210.078552 
	C46.429634,206.962204 56.423763,200.103989 59.813572,199.999985 
	C65.173492,199.835526 69.170860,195.766022 68.999878,190.647903 
	C68.833862,185.678391 63.774738,180.861298 58.869423,181.002075 
	C54.107277,181.138748 50.130474,185.292252 50.000027,190.265549 
	C49.757298,199.519760 44.527054,204.710297 35.204689,205.023209 
	C34.107319,205.060028 32.855717,205.137054 31.957491,205.670273 
	C28.043201,207.993958 25.870544,213.720947 27.220863,217.684326 
	C28.358789,221.024292 33.785828,224.406448 37.351639,223.997864 
	C42.514320,223.406311 45.453362,220.213440 45.999973,213.797241 
M169.000000,372.500000 
	C169.000000,378.813416 168.939316,385.127838 169.047852,391.439392 
	C169.071426,392.809540 169.259598,394.686066 170.136246,395.436188 
	C172.697220,397.627625 173.146225,400.192963 173.064316,403.340546 
	C172.919174,408.917969 177.776749,413.469604 182.946945,412.977875 
	C187.790207,412.517303 192.492920,406.800842 191.998825,401.974792 
	C191.507614,397.176971 185.754028,391.958374 181.285126,393.161407 
	C176.377060,394.482605 176.009476,392.001129 176.004364,388.501434 
	C175.991272,379.529785 175.645142,370.539062 176.125351,361.593170 
	C176.442917,355.677551 173.560501,352.358521 169.000000,349.064697 
	C169.000000,356.905060 169.000000,364.202545 169.000000,372.500000 
M125.000000,257.588379 
	C125.000000,264.579376 125.000717,271.570404 124.999779,278.561401 
	C124.998993,284.424072 121.552788,287.876709 115.581200,288.000031 
	C109.973923,288.115784 106.037369,291.996490 106.000298,297.444977 
	C105.963661,302.829285 110.159164,307.021149 115.563652,307.000000 
	C121.171944,306.978058 125.197540,303.147858 124.922165,297.541687 
	C124.745354,293.941986 125.465729,291.048096 128.523743,288.982513 
	C131.613602,286.895447 132.201721,283.963867 132.072113,280.402039 
	C131.824066,273.586517 131.507202,266.708984 132.146896,259.944916 
	C132.718094,253.905136 129.048477,251.364090 125.000000,248.017685 
	C125.000000,251.298325 125.000000,253.961166 125.000000,257.588379 
M339.000000,359.809814 
	C338.999969,369.464600 339.037079,379.119598 338.980988,388.774048 
	C338.959686,392.438171 338.060913,394.846924 333.382202,393.217255 
	C329.839417,391.983246 323.713409,396.157227 322.261688,400.202911 
	C320.859497,404.110565 323.888611,410.241150 328.082520,411.983643 
	C332.043121,413.629211 338.379913,412.014282 339.791412,408.205231 
	C341.683868,403.098236 343.932404,397.431274 344.452332,392.604218 
	C345.985107,378.373932 344.999512,363.872406 344.999512,349.477020 
	C344.443024,349.279358 343.886536,349.081696 343.330017,348.884033 
	C341.886688,352.220734 340.443359,355.557465 339.000000,359.809814 
M389.000305,296.024109 
	C389.035248,303.101593 392.430878,307.012390 398.530365,307.000000 
	C403.800751,306.989288 408.021271,302.959808 407.999878,297.959167 
	C407.972504,291.560242 404.371704,288.162781 397.444550,288.000000 
	C392.923889,287.893768 389.016815,283.845215 389.006805,279.174774 
	C388.984894,268.943054 389.000000,258.711273 389.000000,248.004364 
	C384.664673,251.002609 382.519257,254.141235 382.875397,259.259399 
	C383.370667,266.377655 383.210876,273.564789 382.918701,280.705536 
	C382.750885,284.806641 383.589905,287.995178 386.961578,290.636200 
	C388.128235,291.550049 388.350891,293.669098 389.000305,296.024109 
M360.081024,134.541611 
	C360.447815,134.605438 360.814636,134.669266 361.181458,134.733109 
	C361.120239,134.356094 361.126129,133.943573 360.956879,133.623734 
	C360.906097,133.527847 360.366852,133.690475 360.081024,134.541611 
z"/>
<path fill="#FFFFFF" opacity="1.000000" stroke="none" 
	d="
M308.463196,513.000000 
	C306.591583,509.651306 303.760071,506.675110 305.029327,502.609467 
	C305.590393,500.812286 306.024719,498.108154 307.281464,497.555756 
	C311.291107,495.793243 311.058380,492.704498 311.017303,489.364716 
	C310.919067,481.374542 313.049927,472.513275 310.255249,465.640656 
	C307.538818,458.960419 299.816345,454.311951 294.279968,448.783447 
	C287.808105,442.320801 281.323151,435.871277 274.185059,428.759735 
	C280.311646,422.813538 286.374573,417.174835 292.097015,411.209564 
	C293.605042,409.637573 294.686646,407.110626 294.876404,404.927704 
	C295.345459,399.531830 297.984528,395.970093 303.104248,395.019501 
	C306.623077,394.366180 311.945221,397.409241 313.421295,400.918518 
	C315.216187,405.185791 313.404480,410.755432 309.061829,413.263977 
	C307.776276,414.006561 305.728027,414.362732 304.381989,413.890503 
	C300.422150,412.501434 298.439941,414.981934 296.183350,417.297119 
	C292.579803,420.994263 288.911743,424.628571 285.276367,428.294800 
	C285.166534,428.405548 285.116699,428.575867 284.374512,429.935455 
	C288.455231,433.678864 292.993469,437.533752 297.170715,441.746552 
	C303.340881,447.969208 309.328461,454.379395 315.208618,460.877258 
	C316.264221,462.043762 316.891632,464.010559 316.922241,465.622955 
	C317.086731,474.284271 316.949310,482.950928 317.052704,491.614105 
	C317.068878,492.971344 317.359863,494.777893 318.245056,495.600586 
	C325.370392,502.222961 325.731781,504.468781 320.708038,512.689270 
	C316.975464,513.000000 312.950897,513.000000 308.463196,513.000000 
z"/>
<path fill="#FFFFFF" opacity="1.000000" stroke="none" 
	d="
M323.545898,1.000000 
	C325.281647,4.416027 326.764618,7.145346 331.325897,7.079704 
	C346.137451,6.866550 360.955688,6.892543 375.766846,7.119307 
	C377.914886,7.152194 380.542542,8.265263 382.091431,9.763988 
	C392.136993,19.484547 401.897034,29.499723 411.899750,39.265656 
	C413.000732,40.340569 415.032349,40.865391 416.657593,40.922119 
	C420.960754,41.072315 424.464752,42.199295 426.735291,46.239582 
	C428.853363,50.008511 428.092377,53.410698 425.820404,56.609604 
	C423.010284,60.566261 418.675232,60.719727 414.657715,59.732990 
	C410.901337,58.810390 408.606964,55.807323 409.051819,51.662186 
	C409.461670,47.843418 407.977081,45.262096 405.270142,42.654018 
	C396.402954,34.110664 387.872833,25.217688 379.018524,16.660477 
	C377.562714,15.253512 375.137146,14.145340 373.141235,14.114880 
	C358.995697,13.898994 344.845154,13.969213 330.696808,14.053087 
	C329.439575,14.060541 327.787994,14.439255 326.995819,15.281553 
	C321.364105,21.269772 316.079315,21.980450 311.595398,17.110683 
	C306.924530,12.037873 307.911438,6.906484 314.288513,1.303948 
	C317.030609,1.000000 320.061188,1.000000 323.545898,1.000000 
z"/>
<path fill="#FFFFFF" opacity="1.000000" stroke="none" 
	d="
M200.541931,1.000000 
	C202.333328,4.031884 203.990753,6.967708 204.924423,10.118039 
	C206.344452,14.909385 202.716080,18.130075 199.468399,19.563879 
	C195.877975,21.149000 191.003235,20.814974 188.383865,16.722870 
	C186.761307,14.188067 184.884323,13.947316 182.334702,13.962436 
	C168.841171,14.042452 155.345993,14.084039 141.853638,13.935501 
	C138.826828,13.902179 136.672256,14.668860 134.509415,16.905359 
	C126.173317,25.525389 117.570984,33.887302 109.135475,42.412304 
	C106.992302,44.578224 104.592484,46.054665 105.693413,50.493118 
	C107.029022,55.877720 101.658470,60.119133 95.429192,59.999985 
	C90.202995,59.900021 85.854935,55.656460 86.002289,50.799652 
	C86.169571,45.286034 91.663071,39.873421 96.913200,41.228760 
	C100.492516,42.152771 101.949554,40.632938 103.840210,38.669376 
	C112.923790,29.235443 121.869347,19.660730 131.210907,10.489439 
	C133.172958,8.563139 136.572327,7.224004 139.348724,7.152990 
	C152.667419,6.812332 166.014420,6.637225 179.319733,7.179496 
	C184.602798,7.394814 187.927429,5.700265 190.289276,1.304402 
	C193.361282,1.000000 196.722580,1.000000 200.541931,1.000000 
z"/>
<path fill="#FFFFFF" opacity="1.000000" stroke="none" 
	d="
M194.460632,513.000000 
	C193.741623,512.240417 193.679474,511.312042 193.194061,510.747681 
	C189.028778,505.904968 189.683533,499.920746 194.538559,496.042328 
	C195.785248,495.046448 196.849564,493.029053 196.892014,491.451172 
	C197.120346,482.961761 196.843750,474.458008 197.114182,465.971069 
	C197.178619,463.949036 198.179016,461.497589 199.581635,460.051086 
	C209.646255,449.671539 219.925873,439.500519 230.603714,428.795685 
	C225.592072,423.879944 220.879532,418.983185 215.802322,414.499359 
	C214.733398,413.555328 212.325180,414.006470 210.535660,414.020294 
	C201.626740,414.089172 197.587326,407.362274 201.841888,399.592621 
	C204.044449,395.570282 207.763794,394.388367 211.696289,395.150604 
	C215.756973,395.937683 219.131668,398.882721 218.815964,403.242981 
	C218.490784,407.734375 220.636200,410.264008 223.410110,412.966461 
	C228.749115,418.167877 233.968887,423.491638 239.550415,429.077209 
	C228.098251,440.491211 216.846237,451.566772 205.817383,462.860260 
	C204.308624,464.405243 203.219620,467.005890 203.125473,469.169525 
	C202.799866,476.651428 202.941116,484.157104 203.054138,491.651459 
	C203.074585,493.006744 203.377731,494.813629 204.267746,495.627960 
	C211.586380,502.324066 211.833191,504.939209 205.711334,512.701538 
	C202.307098,513.000000 198.614182,513.000000 194.460632,513.000000 
z"/>
<path fill="#FFFFFF" opacity="1.000000" stroke="none" 
	d="
M298.925232,244.920074 
	C288.639282,248.428848 278.347107,251.919571 268.073212,255.463333 
	C266.265533,256.086853 264.577026,257.411255 262.758789,257.573090 
	C259.232635,257.886932 255.391983,258.438995 252.142746,257.420868 
	C239.949493,253.600098 227.942139,249.186050 215.372192,244.675674 
	C214.339630,244.316559 213.799988,244.276108 213.260315,244.235672 
	C213.575211,244.675232 213.890091,245.114792 214.204987,245.554337 
	C225.403976,258.902100 239.814682,268.138397 254.715790,277.049225 
	C253.142990,285.937103 251.017639,294.760498 250.246216,303.700745 
	C249.880646,307.937622 246.898788,308.843414 244.774750,310.490814 
	C227.099106,324.199829 209.202774,337.624420 191.358795,351.115997 
	C190.468674,351.789001 189.446289,352.287109 187.459290,353.485626 
	C181.834579,347.649567 175.951538,341.604004 170.140793,335.489746 
	C167.540344,332.753510 165.371857,329.533722 162.497223,327.148041 
	C158.043701,323.451965 156.417892,319.511475 157.878067,313.612518 
	C160.589294,302.659485 162.620789,291.534851 164.789597,280.453125 
	C165.390228,277.384094 165.255432,274.577759 162.588028,271.916229 
	C151.901077,261.252991 141.461060,250.340836 131.009460,239.444260 
	C128.633987,236.967697 126.577499,234.185196 124.102173,231.217346 
	C130.745056,222.002869 137.239151,212.388275 144.401352,203.300217 
	C148.341476,198.300629 151.232727,193.907730 147.082520,187.699677 
	C145.784103,185.757446 145.723831,182.988525 144.428482,181.042999 
	C140.290314,174.827713 142.669571,169.665604 146.232986,164.276138 
	C156.982147,148.018616 167.827621,131.811707 178.023590,115.209221 
	C181.213913,110.014282 186.030228,110.330681 190.424164,109.125656 
	C195.857285,107.635635 201.752365,107.633606 207.007401,105.755989 
	C210.845215,104.384735 213.263153,105.703857 215.935257,107.455544 
	C228.735092,115.846436 241.436798,124.388824 254.326141,132.638672 
	C255.634460,133.476059 258.469910,133.452576 259.744385,132.581528 
	C272.270752,124.020241 284.594177,115.162636 297.048340,106.494209 
	C298.276672,105.639259 300.097626,104.867638 301.463898,105.102470 
	C311.010986,106.743423 320.472992,108.904312 330.042236,110.379974 
	C334.521210,111.070671 335.848816,114.582237 337.704346,117.436157 
	C348.932373,134.705811 359.869965,152.164124 371.054230,169.462646 
	C372.512421,171.718002 372.871368,173.337006 371.705078,175.915680 
	C369.468719,180.860428 368.238098,186.275864 365.846252,191.129410 
	C364.010284,194.854950 365.205048,197.104477 367.376312,199.988327 
	C374.472473,209.413422 381.094299,219.199799 388.320709,228.519897 
	C390.293335,231.064041 389.525879,232.439911 388.145508,234.309586 
	C387.754028,234.839844 387.221527,235.265411 386.758240,235.743378 
	C376.248169,246.585938 365.817841,257.507507 355.193909,268.237305 
	C350.297699,273.182312 348.215637,277.915894 350.425598,285.431671 
	C353.641968,296.370178 354.942566,307.877808 356.906372,319.169495 
	C357.095459,320.256714 356.537537,321.850952 355.759033,322.671722 
	C346.860321,332.053650 337.802307,341.284515 328.905731,350.668457 
	C326.621368,353.077942 324.603577,352.475525 322.450409,350.837860 
	C309.667236,341.115234 296.905426,331.364563 284.130585,321.630981 
	C278.584198,317.404968 273.141022,313.029297 267.427399,309.042053 
	C263.807922,306.516205 263.857758,302.648102 263.075867,299.146210 
	C261.808838,293.471344 260.916595,287.705017 260.069580,281.947357 
	C259.624603,278.922821 260.247955,276.703186 263.453949,274.672852 
	C276.420502,266.461182 289.370422,258.115021 299.780975,245.646851 
	C300.352875,244.861740 300.484528,244.526443 300.616150,244.191162 
	C300.052521,244.434143 299.488892,244.677124 298.925232,244.920074 
M324.335571,229.268982 
	C324.482269,229.372482 324.628998,229.475998 324.340698,230.096634 
	C316.200256,238.587936 307.808563,246.855240 299.986420,255.630264 
	C291.252197,265.428528 280.068512,271.799255 269.399323,278.951324 
	C268.364807,279.644806 267.007599,281.124603 267.128326,282.069733 
	C267.968323,288.645142 269.116791,295.183380 270.291382,301.711029 
	C270.437988,302.525757 271.179474,303.390381 271.879791,303.924347 
	C278.964783,309.326050 286.119385,314.636383 293.213928,320.025726 
	C304.035828,328.246552 314.825775,336.509552 323.457153,343.096924 
	C332.041931,335.529144 340.403015,328.207214 348.673035,320.783783 
	C349.402069,320.129395 350.036560,318.719025 349.869720,317.815887 
	C347.762085,306.405945 345.750305,294.967682 343.182281,283.657379 
	C341.625641,276.801483 342.070679,271.673737 347.853851,266.254120 
	C358.925049,255.878830 368.829010,244.262543 379.318665,233.257797 
	C381.166809,231.318863 381.274628,230.154297 379.547516,227.886902 
	C372.101074,218.111008 364.910736,208.137527 357.787048,198.122269 
	C357.106934,197.166122 357.097290,195.263275 357.525177,194.067978 
	C359.681671,188.043701 362.221924,182.154938 364.302307,176.106766 
	C364.779999,174.717972 364.475159,172.579529 363.687439,171.308533 
	C353.098572,154.223053 342.387878,137.212616 331.605316,120.248436 
	C330.760162,118.918724 329.303864,117.446991 327.877838,117.107704 
	C321.293365,115.541077 314.652374,114.135468 307.964905,113.105659 
	C303.673309,112.444786 299.769073,112.300888 295.529968,115.561531 
	C283.013641,125.188942 269.821808,133.938171 256.889160,143.034592 
	C242.120667,133.086563 227.451538,123.125946 212.646744,113.371239 
	C211.342926,112.512177 209.113708,112.701675 207.380051,112.921883 
	C203.211426,113.451378 198.997757,113.980408 194.958832,115.083122 
	C190.382385,116.332596 185.347321,115.792809 182.072983,121.189003 
	C171.808121,138.105789 160.849960,154.601120 150.284866,171.338303 
	C149.609589,172.408066 149.533493,174.304352 149.960571,175.547546 
	C152.389404,182.617676 155.056000,189.606125 157.596649,196.500000 
	C149.240799,208.046188 140.925171,219.536804 132.722000,230.872025 
	C137.681793,236.307358 142.165497,241.372574 146.814072,246.281708 
	C154.902588,254.823578 163.116562,263.246674 171.200516,271.792816 
	C171.938766,272.573212 172.645309,273.976593 172.476151,274.933228 
	C170.031281,288.760284 167.404068,302.555023 164.927856,316.376709 
	C164.722321,317.524048 164.864120,319.193054 165.564621,319.972626 
	C173.115875,328.375946 180.811691,336.649353 188.296417,344.772095 
	C203.434341,333.386017 218.438416,322.324646 233.160416,310.899780 
	C237.992096,307.150208 244.703003,304.810333 244.810287,296.716888 
	C244.869537,292.246674 246.488998,287.814484 246.843872,283.320801 
	C246.957550,281.881592 245.631653,279.820465 244.351761,278.861786 
	C235.943665,272.563751 226.850266,267.079437 218.988510,260.180908 
	C210.676559,252.887299 203.455322,244.344894 195.824921,236.284317 
	C193.799194,234.144409 192.020569,231.770615 190.128494,229.504196 
	C195.689453,230.430252 200.624130,232.219498 205.561691,234.000702 
	C221.675919,239.813828 237.763519,245.703659 253.942902,251.329529 
	C255.858231,251.995514 258.442749,251.694199 260.437012,251.016754 
	C271.349457,247.309845 282.154968,243.289764 293.035126,239.485657 
	C303.307434,235.894073 313.626648,232.436569 324.335571,229.268982 
z"/>
<path fill="#FFFFFF" opacity="1.000000" stroke="none" 
	d="
M315.330139,352.744720 
	C316.090515,353.142487 316.553192,353.283905 316.977692,353.500092 
	C317.667175,353.851288 318.331665,354.251434 319.441040,354.875092 
	C310.431305,369.068298 301.499237,383.139191 291.965057,398.158569 
	C289.604828,393.924927 287.698822,390.506042 285.633057,386.800629 
	C276.059448,395.695068 266.662781,404.425110 257.038696,413.366425 
	C247.510757,404.418457 238.160690,395.637543 228.727356,386.778412 
	C226.502228,390.671448 224.530075,394.121918 222.261444,398.091064 
	C213.166336,383.847412 204.136398,369.705841 194.857239,355.174011 
	C198.724258,352.841583 202.492203,350.402405 206.410355,348.234741 
	C222.572861,339.292969 238.790497,330.450867 254.957458,321.517090 
	C256.585632,320.617340 257.549774,320.581299 259.420410,321.641357 
	C277.862854,332.092285 296.461151,342.268097 315.330139,352.744720 
M226.569931,345.037323 
	C219.309082,349.121948 212.048248,353.206604 204.392761,357.513245 
	C210.321762,366.798309 215.960983,375.629547 221.776230,384.736450 
	C223.972015,381.280731 225.630569,378.670532 227.260513,376.105377 
	C237.406082,385.710297 247.226791,395.007690 256.976196,404.237579 
	C267.171173,394.746796 277.018951,385.579193 287.265106,376.040771 
	C289.203552,379.557983 290.667206,382.213654 292.256042,385.096466 
	C298.251587,375.680237 304.057465,366.561920 309.791779,357.555939 
	C296.766418,350.158508 283.933868,342.836426 271.066650,335.575836 
	C263.347321,331.220062 256.161011,325.423218 246.762177,333.373444 
	C241.080109,338.179749 233.857910,341.165314 226.569931,345.037323 
z"/>
<path fill="#FFFFFF" opacity="1.000000" stroke="none" 
	d="
M421.799194,227.309326 
	C416.912720,222.083099 417.042328,217.925613 421.329559,213.018356 
	C422.769806,211.369827 423.799866,208.811264 423.880737,206.626572 
	C424.163940,198.976379 426.035675,190.451797 423.339691,183.887482 
	C420.654144,177.348541 413.223816,172.742203 407.826111,167.336212 
	C390.288696,149.771835 372.362457,132.574677 355.358124,114.509270 
	C348.507050,107.230690 340.459564,103.496170 329.951935,100.393723 
	C332.658844,99.284241 334.175995,98.285889 335.800262,98.060936 
	C343.394073,97.009193 349.221039,99.169991 354.962830,105.111473 
	C379.036469,130.022446 403.811340,154.254959 428.196960,178.867172 
	C429.711639,180.395920 430.777832,183.017899 430.874969,185.184067 
	C431.203094,192.498947 430.869019,199.841873 431.103729,207.163956 
	C431.154358,208.744797 432.165436,210.663193 433.347351,211.773148 
	C437.569427,215.738190 439.151917,221.399475 436.316650,225.086746 
	C433.324738,228.977646 428.749756,232.277802 421.799194,227.309326 
z"/>
<path fill="#FFFFFF" opacity="1.000000" stroke="none" 
	d="
M114.750000,149.750000 
	C131.360062,133.125992 147.714081,116.745911 164.085129,100.382881 
	C167.527832,96.941849 179.038757,96.913078 183.266418,100.836731 
	C178.601044,102.301277 174.277802,103.581772 170.016174,105.042107 
	C168.708435,105.490242 167.352615,106.213242 166.384842,107.177666 
	C141.615829,131.860809 116.874329,156.571793 92.229820,181.379013 
	C91.015839,182.600998 90.193893,184.708710 90.099495,186.453232 
	C89.820953,191.600815 90.020065,196.773285 89.994102,201.935806 
	C89.970268,206.675430 89.941307,210.841003 93.952873,214.963074 
	C98.079750,219.203552 96.122925,224.346832 91.164627,228.241714 
	C87.728653,230.940796 81.471054,229.725830 78.619469,226.113358 
	C75.707466,222.424347 76.334816,214.673843 80.299706,212.469360 
	C83.465195,210.709366 84.413551,208.570282 84.002686,205.334442 
	C83.981873,205.170547 83.999130,205.001694 84.000122,204.835159 
	C84.048912,196.683731 81.915131,187.643478 84.769249,180.634323 
	C87.545944,173.815308 95.430878,169.075531 101.075470,163.425415 
	C105.548264,158.948227 110.025017,154.475006 114.750000,149.750000 
z"/>
<path fill="#FFFFFF" opacity="1.000000" stroke="none" 
	d="
M226.750000,84.250000 
	C231.122055,88.620766 234.821426,93.318748 239.468918,96.721962 
	C245.844040,101.390274 245.324142,107.380867 244.731689,114.353004 
	C241.424850,112.402901 238.158554,111.374626 238.838531,106.714828 
	C239.006592,105.563118 237.384750,103.950584 236.288223,102.844917 
	C225.619324,92.087128 214.959503,81.317604 204.091309,70.763306 
	C202.545685,69.262306 199.913086,68.154785 197.763046,68.119583 
	C183.611710,67.887833 169.452972,67.889565 155.301529,68.117393 
	C153.144287,68.152130 150.760773,69.403473 148.932465,70.718521 
	C146.665817,72.348877 144.830826,74.595924 142.878723,76.642731 
	C140.561310,79.072563 137.728668,80.688316 138.724274,85.412048 
	C139.678970,89.941635 132.815613,95.434135 128.455719,94.841232 
	C123.480583,94.164673 118.298996,87.931778 119.109001,83.598160 
	C120.150810,78.024483 125.771606,74.552284 131.348038,75.629578 
	C132.803986,75.910851 134.524490,74.838081 136.117508,74.366997 
	C136.254044,74.326607 136.363861,74.145912 136.455215,74.009689 
	C144.354599,62.229946 155.514359,59.413765 169.081543,60.794331 
	C179.300629,61.834206 189.713547,60.868450 200.032654,61.113216 
	C202.048035,61.161015 204.482590,62.191689 205.948303,63.584892 
	C212.945389,70.235786 219.675156,77.167908 226.750000,84.250000 
z"/>
<path fill="#FFFFFF" opacity="1.000000" stroke="none" 
	d="
M282.250000,89.250000 
	C290.972565,80.523750 299.368439,71.967979 307.992371,63.648643 
	C309.449066,62.243393 311.879456,61.139442 313.875702,61.113659 
	C329.688629,60.909409 345.506226,60.922783 361.319733,61.103004 
	C363.183563,61.124249 365.305603,62.212917 366.824036,63.417038 
	C369.283356,65.367317 371.310394,67.855469 373.576324,70.058525 
	C376.841858,73.233414 379.172028,77.149742 385.430511,75.312866 
	C389.863739,74.011703 395.405701,80.891197 394.995148,85.450279 
	C394.510406,90.832893 390.087280,94.251022 383.931641,93.999947 
	C378.836761,93.792137 375.373291,89.750099 375.270905,84.324120 
	C375.239441,82.657608 374.714325,80.754761 373.784119,79.390411 
	C367.340332,69.938934 358.570953,66.602692 347.041779,67.781120 
	C336.826752,68.825241 326.417786,67.873131 316.101410,68.108528 
	C314.072021,68.154839 311.575439,69.086472 310.141846,70.481033 
	C299.405731,80.924828 288.881927,91.586945 278.293549,102.182564 
	C277.593109,102.883507 276.229462,103.706665 276.321686,104.292343 
	C277.165314,109.651413 272.525879,110.956512 269.230896,114.058243 
	C268.893738,107.701439 267.665131,101.872986 273.815063,97.533127 
	C276.897827,95.357697 279.293549,92.208694 282.250000,89.250000 
z"/>
<path fill="#FFFFFF" opacity="1.000000" stroke="none" 
	d="
M384.749878,167.249908 
	C374.420013,158.466064 368.572662,146.938110 362.565826,135.426254 
	C363.649384,136.383438 364.787323,137.286179 365.808319,138.306015 
	C380.298889,152.780258 394.729980,167.314453 409.292084,181.716293 
	C411.937836,184.332932 413.097687,187.079712 413.068817,190.834503 
	C412.920349,210.150543 412.995514,229.468338 413.005096,248.785522 
	C413.006439,251.496002 412.586761,253.904663 415.967743,255.771606 
	C419.345215,257.636627 419.751099,264.190308 417.724121,267.756653 
	C415.894836,270.975159 410.038147,273.215302 405.875183,271.875244 
	C401.674652,270.523102 399.848969,267.452271 399.902191,262.892670 
	C399.937408,259.876190 400.231842,257.134979 402.952972,255.626221 
	C405.886383,253.999786 406.056793,251.632217 406.043732,248.746735 
	C405.958649,229.929520 406.084534,211.110825 405.884155,192.295364 
	C405.861206,190.143250 404.754364,187.531784 403.276520,185.948853 
	C397.371826,179.624191 391.122040,173.621674 384.749878,167.249908 
z"/>
<path fill="#FFFFFF" opacity="1.000000" stroke="none" 
	d="
M151.082214,138.072525 
	C146.068512,145.532562 141.715149,153.563629 135.878937,160.312363 
	C128.060135,169.353714 119.015373,177.327042 110.695221,185.950211 
	C109.285889,187.410889 108.134499,189.825760 108.114647,191.812286 
	C107.923347,210.955338 107.920944,230.101868 108.122009,249.244720 
	C108.142174,251.163925 109.442680,253.495758 110.875305,254.889465 
	C114.354042,258.273621 115.532822,262.344421 113.669685,266.813843 
	C111.667519,271.616699 107.712669,272.322998 103.170990,272.012756 
	C98.150398,271.669800 95.825737,267.793182 95.342613,264.008667 
	C94.984779,261.205597 96.817490,257.183807 99.026573,255.248184 
	C101.378563,253.187378 102.031837,251.385056 102.025291,248.636414 
	C101.978088,228.825653 101.932915,209.014175 102.101440,189.204742 
	C102.118713,187.173645 103.008530,184.625107 104.401474,183.211227 
	C119.469780,167.916534 134.720001,152.801041 150.331467,137.645599 
	C150.855652,137.793900 150.968933,137.933212 151.082214,138.072525 
z"/>
<path fill="#FFFFFF" opacity="1.000000" stroke="none" 
	d="
M126.747925,123.751892 
	C124.971886,125.535828 123.484009,127.109100 121.912025,128.593292 
	C119.987206,130.410599 118.579506,131.747253 119.736359,135.190048 
	C121.029602,139.038696 117.969139,142.432236 114.817734,144.531479 
	C111.727432,146.590012 108.070175,146.399414 104.848900,144.292435 
	C101.212914,141.914200 99.353477,135.615829 101.022911,131.878906 
	C102.777390,127.951591 107.551811,125.990829 112.320770,126.632744 
	C113.709229,126.819626 115.662361,125.739174 116.769196,124.645241 
	C130.380890,111.192291 143.973343,97.716805 157.352661,84.033890 
	C160.813004,80.495018 164.313644,78.184761 169.426102,78.961357 
	C171.052872,79.208473 172.748840,79.000000 174.413147,79.000000 
	C193.326981,79.000000 194.578552,79.583160 206.592072,94.120285 
	C206.860657,94.445282 206.836502,95.012199 206.944901,95.450119 
	C202.261841,97.485390 198.593231,96.437286 195.773102,92.287903 
	C192.178146,86.998474 187.069427,86.274948 180.914169,85.709564 
	C168.948074,84.610420 160.279327,88.279701 152.580154,97.569466 
	C144.861084,106.883240 135.589783,114.910568 126.747925,123.751892 
z"/>
<path fill="#FFFFFF" opacity="1.000000" stroke="none" 
	d="
M354.721680,91.223816 
	C351.544403,86.760391 347.581268,85.124489 342.512238,85.967651 
	C341.215973,86.183258 339.827118,86.171677 338.525482,85.972565 
	C328.982513,84.512756 321.223846,86.959114 315.082031,94.976158 
	C313.731873,96.738510 309.498230,96.291794 306.592438,96.862358 
	C306.256531,96.248970 305.920593,95.635574 305.584656,95.022186 
	C310.857483,90.037720 316.066132,84.981712 321.464417,80.137047 
	C322.398346,79.298904 324.132050,79.066689 325.502991,79.048172 
	C332.994812,78.947006 340.495209,78.828743 347.977600,79.112785 
	C350.008759,79.189903 352.485626,80.135422 353.913757,81.540443 
	C368.392365,95.784912 382.695190,110.208023 397.049164,124.579147 
	C398.668427,126.200340 399.836670,127.431007 402.866058,126.242142 
	C407.163513,124.555618 413.445557,130.213242 413.990387,135.395660 
	C414.472717,139.983490 409.460724,145.575317 404.489838,145.995331 
	C399.824677,146.389526 394.814209,141.881683 395.108459,136.874115 
	C395.346497,132.823715 393.873779,130.195068 391.061432,127.450882 
	C378.906250,115.590385 366.987152,103.487930 354.721680,91.223816 
z"/>
<path fill="#FFFFFF" opacity="1.000000" stroke="none" 
	d="
M367.000000,297.713104 
	C367.000000,289.758759 366.997528,282.270416 367.000824,274.782043 
	C367.003082,269.720337 368.104248,268.099670 374.000000,264.939026 
	C374.000000,275.612030 373.836273,286.015076 374.126648,296.405426 
	C374.191193,298.713806 375.290009,301.522308 376.877502,303.172211 
	C386.335144,313.001587 395.988007,322.649261 405.782623,332.144104 
	C408.271820,334.557129 409.351349,336.958832 409.061066,340.366974 
	C408.779602,343.671173 408.966309,347.018524 409.007874,350.346161 
	C409.070709,355.381775 408.574371,359.905975 413.279114,364.319458 
	C418.227203,368.961121 416.606384,373.851715 411.388855,377.933655 
	C407.393677,381.059296 402.479401,380.919373 398.291595,375.714691 
	C395.482666,372.223633 394.382568,367.076569 400.050964,362.631683 
	C402.629089,360.610016 402.658936,358.445496 403.107635,355.713470 
	C405.158325,343.226593 400.746613,333.994080 390.922546,326.118835 
	C383.309662,320.016083 377.010834,312.293610 369.922089,305.506073 
	C367.685181,303.364227 366.504303,301.211761 367.000000,297.713104 
z"/>
<path fill="#FFFFFF" opacity="1.000000" stroke="none" 
	d="
M152.000000,402.999756 
	C152.000000,407.332184 151.735825,411.187347 152.062469,414.991821 
	C152.542007,420.577057 151.661026,425.238800 146.834595,429.002899 
	C145.379761,430.137573 145.158157,433.361511 145.076462,435.653503 
	C144.832092,442.509369 141.550446,445.527954 134.397491,444.999542 
	C129.501205,444.637817 125.542519,439.854523 126.001411,434.854523 
	C126.511826,429.293213 132.154800,425.208405 137.828979,426.292847 
	C141.114883,426.920807 144.992508,422.537140 144.994415,418.114197 
	C145.005753,391.953125 145.104187,365.791229 144.900467,339.631744 
	C144.865326,335.116943 145.569763,331.499786 150.189667,328.844910 
	C151.349808,329.954071 152.725311,331.269165 153.507736,332.017181 
	C152.920380,335.132141 152.073273,337.570648 152.060806,340.013458 
	C151.954620,360.841797 152.000000,381.670929 152.000000,402.999756 
z"/>
<path fill="#FFFFFF" opacity="1.000000" stroke="none" 
	d="
M111.742218,328.757202 
	C120.694534,319.792908 129.494186,311.175018 138.003448,302.279388 
	C139.597977,300.612457 140.796661,297.858124 140.867569,295.565094 
	C141.176025,285.591278 141.000000,275.602509 141.000000,265.064240 
	C144.786606,267.804779 147.454117,270.266083 147.129379,275.384979 
	C146.635193,283.174896 147.192947,291.027191 146.874756,298.835480 
	C146.786758,300.994904 145.687576,303.585541 144.184464,305.138092 
	C134.464310,315.177979 124.360954,324.849487 114.738663,334.979370 
	C112.730034,337.093964 111.729286,340.525055 111.133484,343.522278 
	C110.528847,346.563873 111.084946,349.822144 110.979195,352.980408 
	C110.836548,357.240570 110.861458,360.904236 115.153633,363.969757 
	C119.113899,366.798218 119.159088,372.966064 114.160629,377.378204 
	C110.216904,380.859253 104.417015,380.463745 100.862762,376.348938 
	C97.587914,372.557587 97.839455,365.211975 102.018875,362.736176 
	C104.960793,360.993530 105.075233,358.970459 105.020088,356.294464 
	C104.941246,352.468689 105.393501,348.589844 104.913437,344.823639 
	C104.063026,338.151917 105.969452,332.897736 111.742218,328.757202 
z"/>
<path fill="#FFFFFF" opacity="1.000000" stroke="none" 
	d="
M440.000000,316.205841 
	C440.586914,311.988556 439.259308,309.182220 436.321198,306.709167 
	C433.147766,304.038086 430.408691,300.855438 427.430634,297.946564 
	C424.523834,295.107269 422.298920,291.801483 416.931213,292.755951 
	C412.711670,293.506195 408.326843,288.196228 408.000702,283.747864 
	C407.704742,279.711151 410.954559,275.085876 414.790894,274.083801 
	C419.664795,272.810730 424.228180,274.603973 426.133118,278.537354 
	C426.409576,279.108215 427.053223,279.759460 426.935822,280.224182 
	C425.104431,287.473145 430.037476,291.520844 434.683319,294.989227 
	C444.940704,302.646912 449.267090,312.324463 447.037964,324.967102 
	C446.627808,327.293427 447.215149,328.947998 449.730072,330.532684 
	C453.702362,333.035828 454.197418,339.677460 451.225037,343.196106 
	C446.441254,348.858917 443.231201,348.903900 437.318176,345.635651 
	C433.648438,343.607269 431.965790,335.146637 435.426727,332.528503 
	C441.381714,328.023651 439.740936,322.284149 440.000000,316.205841 
z"/>
<path fill="#FFFFFF" opacity="1.000000" stroke="none" 
	d="
M133.000000,361.011292 
	C133.000000,368.004547 132.838333,374.506226 133.068359,380.994019 
	C133.182938,384.225525 132.312881,386.584717 129.852692,388.744659 
	C126.427032,391.752319 123.133621,394.626984 123.754990,400.331635 
	C124.152458,403.980713 120.911156,407.176331 117.019798,407.317657 
	C113.911949,407.430511 109.942520,406.793701 107.810295,404.873901 
	C105.250656,402.569214 103.667015,398.767670 105.760216,394.687714 
	C108.117302,390.093384 111.658997,388.013672 116.527313,388.906372 
	C120.354950,389.608246 125.896614,385.648315 125.948723,381.787903 
	C126.094856,370.963318 126.122902,360.132507 125.866501,349.312012 
	C125.828125,347.692413 124.219383,345.924652 122.975403,344.553558 
	C119.173660,340.363220 118.951607,334.459534 122.668022,331.042969 
	C126.791222,327.252411 133.908951,327.633484 137.313828,331.827087 
	C140.487106,335.735443 139.434692,342.742554 135.470871,345.932281 
	C134.305374,346.870209 133.253174,348.580414 133.110184,350.031403 
	C132.768814,353.495544 133.000015,357.016174 133.000000,361.011292 
z"/>
<path fill="#FFFFFF" opacity="1.000000" stroke="none" 
	d="
M369.000000,344.028076 
	C369.000000,368.822205 368.997345,393.121887 369.001892,417.421570 
	C369.003052,423.442902 372.095001,426.409760 377.910370,426.001221 
	C383.208923,425.628998 387.752563,429.921967 387.999939,435.534302 
	C388.203094,440.143372 384.279510,444.823853 380.065063,444.999969 
	C373.543488,445.272461 368.615723,441.769073 369.194122,436.188324 
	C369.664398,431.650726 367.755157,429.129333 365.004303,426.252197 
	C363.749298,424.939545 363.090485,422.540771 363.081757,420.630432 
	C362.960846,394.167633 363.048035,367.703888 362.925903,341.241089 
	C362.913666,338.587494 361.869476,335.938599 361.184784,332.727417 
	C361.849976,331.954590 363.238831,330.340973 364.592102,328.768707 
	C371.560425,332.393799 368.181274,338.552155 369.000000,344.028076 
z"/>
<path fill="#FFFFFF" opacity="1.000000" stroke="none" 
	d="
M408.999207,397.173126 
	C408.451111,403.368408 403.760223,408.319611 399.149567,407.982208 
	C394.244720,407.623322 390.731262,402.873138 389.790466,397.420990 
	C389.298584,394.570160 387.053406,391.663330 384.858002,389.554230 
	C382.009247,386.817505 380.763916,384.095856 380.896820,380.075592 
	C381.215820,370.428558 381.142578,360.759888 380.874634,351.109741 
	C380.823639,349.272919 379.527893,347.094940 378.149963,345.743958 
	C374.597809,342.261353 373.834137,334.942688 377.051697,331.475891 
	C380.376587,327.893524 388.386871,327.590546 391.429108,330.932068 
	C394.999298,334.853485 395.074677,342.671631 390.792328,345.407715 
	C388.048828,347.160614 387.983887,348.980957 387.990173,351.451385 
	C388.014374,360.942383 387.987122,370.433533 388.005035,379.924561 
	C388.015167,385.302307 391.758087,388.970520 397.203857,389.000000 
	C405.691986,389.045929 406.224792,389.396515 408.999207,397.173126 
z"/>
<path fill="#FFFFFF" opacity="1.000000" stroke="none" 
	d="
M91.750031,128.750000 
	C84.861313,135.503555 78.222588,142.007080 70.516884,149.555862 
	C72.664375,151.093185 74.462402,152.059937 75.854240,153.437180 
	C79.925812,157.466003 79.832977,162.567154 75.811768,166.684296 
	C72.716042,169.853867 65.567146,169.935867 62.359200,166.838608 
	C58.765854,163.369247 58.731354,156.676880 62.379852,153.165817 
	C64.433136,151.189865 66.781960,149.633133 66.159988,146.029694 
	C65.958366,144.861572 67.402939,143.149963 68.475281,142.062378 
	C76.893616,133.524506 85.453621,125.125793 93.823341,116.541245 
	C94.847321,115.490974 95.659714,113.491669 95.441612,112.110382 
	C94.747208,107.712646 97.607666,102.387703 101.874634,101.063408 
	C106.240631,99.708374 112.082230,102.314613 113.747238,106.360374 
	C116.333061,112.643585 111.815506,120.581863 105.516685,119.787575 
	C101.350586,119.262230 99.260338,121.031990 96.933807,123.540215 
	C95.348938,125.248863 93.648682,126.850487 91.750031,128.750000 
z"/>
<path fill="#FFFFFF" opacity="1.000000" stroke="none" 
	d="
M74.000320,326.472473 
	C74.465523,327.898407 74.670570,329.213257 75.435852,329.812225 
	C82.557091,335.385712 81.837143,343.221405 73.914917,347.056580 
	C69.192245,349.342773 66.018013,346.948364 63.353153,343.747681 
	C60.706448,340.568756 59.169426,335.687408 62.629490,333.274292 
	C69.298386,328.623352 68.442039,322.344757 67.848892,316.255280 
	C67.154778,309.129150 69.218620,303.827240 74.865349,299.528076 
	C77.492348,297.528015 79.505310,294.741608 82.003433,292.547119 
	C85.361198,289.597504 87.262001,286.559601 87.254547,281.578552 
	C87.245979,275.859558 92.048569,273.034485 99.376480,274.031372 
	C103.274818,274.561676 106.924225,281.015350 105.905952,285.281464 
	C104.603546,290.737976 99.821831,293.675507 94.122566,292.727844 
	C93.135101,292.563690 91.690720,292.919006 90.993790,293.590820 
	C85.721207,298.673431 80.371613,303.709015 75.537445,309.192505 
	C74.182358,310.729614 74.222328,313.695404 74.058762,316.036377 
	C73.827065,319.352509 74.000023,322.696960 74.000320,326.472473 
z"/>
<path fill="#FFFFFF" opacity="1.000000" stroke="none" 
	d="
M106.753014,72.746689 
	C108.536743,70.973717 110.071274,69.452896 111.603813,67.930069 
	C113.237335,66.306908 114.405899,65.119293 113.264061,62.105888 
	C111.981750,58.721809 115.281723,53.480690 119.706604,51.979515 
	C124.294518,50.423027 128.659180,51.808544 130.955658,55.735905 
	C133.155029,59.497166 133.353653,63.375027 130.574615,66.794807 
	C128.062912,69.885628 125.014908,72.119629 120.479774,70.210762 
	C119.609375,69.844398 117.716980,70.909607 116.793373,71.819298 
	C106.844681,81.618011 96.909851,91.435387 87.230133,101.496735 
	C86.045067,102.728516 86.116722,105.407715 86.050934,107.430611 
	C85.891663,112.328125 82.547707,116.492348 78.065147,116.998909 
	C73.110512,117.558815 68.083900,114.394119 67.039345,110.057182 
	C65.936745,105.479210 68.689178,100.120331 73.061867,98.445152 
	C73.802124,98.161560 74.756714,97.818962 75.420242,98.051521 
	C80.704330,99.903564 83.362862,96.216988 86.414307,93.117691 
	C93.063202,86.364532 99.801292,79.699181 106.753014,72.746689 
z"/>
<path fill="#FFFFFF" opacity="1.000000" stroke="none" 
	d="
M228.261871,49.758453 
	C224.728714,44.923416 220.405304,43.153492 214.752075,43.919445 
	C211.479767,44.362804 208.097092,44.055489 204.766174,43.986225 
	C200.416016,43.895763 196.494080,43.699535 193.179749,47.972149 
	C190.309418,51.672367 183.926544,50.672913 180.542847,47.062569 
	C177.069290,43.356339 177.102417,37.490795 180.617355,33.869438 
	C184.267029,30.109274 190.500671,29.444101 193.631256,33.428867 
	C196.442978,37.007767 199.603439,37.224915 203.365723,37.010311 
	C204.528275,36.943996 205.718140,37.141953 206.860977,36.978100 
	C218.607758,35.293888 228.694901,37.664410 235.866669,48.117794 
	C236.532349,49.088081 239.080276,49.092327 240.725052,49.003685 
	C245.386459,48.752472 248.793869,51.027592 250.772797,54.735596 
	C252.922607,58.763752 251.997757,62.680359 248.510101,66.082214 
	C245.061523,69.445969 241.070984,69.872520 237.484680,67.624054 
	C234.211563,65.571945 230.939499,62.599926 232.738724,57.630394 
	C234.207642,53.573112 230.226990,52.393280 228.261871,49.758453 
z"/>
<path fill="#FFFFFF" opacity="1.000000" stroke="none" 
	d="
M441.702515,116.079773 
	C433.946991,119.788445 426.615875,112.937744 428.237732,105.128845 
	C428.454071,104.087265 427.834900,102.480667 427.048157,101.681709 
	C417.239227,91.720840 407.371155,81.816551 397.375488,72.043747 
	C396.375793,71.066345 394.373260,70.502525 392.952850,70.680153 
	C388.337921,71.257324 385.066986,69.525101 382.926147,65.603500 
	C380.940948,61.967010 381.799774,56.170254 384.647705,53.886005 
	C388.009888,51.189301 391.967010,49.879078 395.755096,52.398666 
	C399.408691,54.828773 401.455200,58.527313 400.967651,63.291382 
	C400.835663,64.581413 401.062012,66.389160 401.877197,67.221802 
	C411.657623,77.211815 421.552124,87.091217 431.519043,96.895592 
	C432.303741,97.667511 433.877167,98.038948 435.038818,97.956757 
	C440.050140,97.602180 444.125885,98.742348 446.301788,103.799973 
	C448.231812,108.285950 447.047577,111.827591 441.702515,116.079773 
z"/>
<path fill="#FFFFFF" opacity="1.000000" stroke="none" 
	d="
M289.872192,37.044003 
	C296.119446,37.003651 301.944397,37.029552 307.768890,36.991459 
	C312.659332,36.959473 317.362610,37.753876 321.206635,32.672150 
	C324.022522,28.949617 330.869812,30.612644 334.133698,34.668434 
	C336.916290,38.126129 336.733032,43.754295 333.740479,46.746998 
	C329.726868,50.760815 323.483307,51.558228 320.331329,47.529610 
	C317.654419,44.108177 314.715881,43.823391 311.090485,43.974537 
	C308.100128,44.099213 305.051880,44.345169 302.114288,43.932522 
	C294.586121,42.875031 288.614319,44.983585 284.102631,51.305363 
	C282.542877,53.490898 280.277863,54.623421 281.765472,58.344055 
	C283.276245,62.122746 278.842346,67.134750 274.002655,68.518677 
	C270.372681,69.556671 264.805603,66.610275 263.380493,62.896805 
	C261.627655,58.329491 263.178650,52.976814 267.305267,51.077938 
	C269.404724,50.111881 272.009857,50.292835 274.346893,49.776440 
	C275.658020,49.486729 277.182220,49.147095 278.104279,48.287205 
	C281.989838,44.663582 285.684875,40.835686 289.872192,37.044003 
z"/>
<path fill="#FFFFFF" opacity="1.000000" stroke="none" 
	d="
M420.163269,116.659569 
	C428.761963,125.275932 437.184418,133.550522 445.406738,142.019394 
	C446.728882,143.381180 447.078644,145.652115 448.022461,147.425873 
	C448.975891,149.217850 449.853668,151.153702 451.214386,152.604721 
	C454.477051,156.083923 456.016205,159.383896 453.473755,164.243271 
	C450.828979,169.298279 446.603638,169.464371 442.215302,168.886551 
	C437.409760,168.253799 435.129913,163.756912 435.389557,160.095535 
	C435.645020,156.493240 438.879639,153.102219 440.807007,149.618484 
	C441.421448,149.666382 442.035858,149.714294 442.650299,149.762192 
	C441.287262,147.854141 440.143463,145.731705 438.523407,144.074966 
	C431.315491,136.703857 423.923553,129.512772 416.710144,122.146942 
	C414.922089,120.321152 413.379272,119.541245 410.559204,119.852905 
	C403.684143,120.612686 399.785248,116.359650 400.000092,109.195122 
	C400.154572,104.042976 404.895752,100.461166 410.846710,101.000862 
	C415.879639,101.457306 419.760406,107.132240 418.936005,112.440514 
	C418.744476,113.673706 419.565491,115.064148 420.163269,116.659569 
z"/>
<path fill="#FFFFFF" opacity="1.000000" stroke="none" 
	d="
M204.641800,426.736115 
	C202.466843,433.857544 199.450653,435.923981 192.713745,435.278229 
	C191.923203,435.202454 190.875412,435.711823 190.255264,436.284119 
	C184.558640,441.541229 178.877655,446.817780 173.300446,452.200897 
	C169.704437,455.671722 169.948166,459.773590 173.728409,463.229248 
	C177.395538,466.581482 178.142746,472.102753 175.462067,476.039154 
	C173.419312,479.038666 167.041290,480.722748 163.670639,479.152527 
	C158.934128,476.946106 156.464615,471.631500 158.105515,466.885895 
	C158.401291,466.030487 159.173492,465.218109 159.929749,464.664612 
	C163.317047,462.185425 164.472946,458.974518 164.138672,454.795776 
	C164.021683,453.333313 165.182251,451.433594 166.309326,450.263062 
	C172.074036,444.276123 178.070511,438.512634 183.850891,432.540344 
	C184.864273,431.493317 185.951035,429.726807 185.779282,428.458435 
	C184.984314,422.588074 187.444458,417.923553 192.281479,417.010773 
	C199.066483,415.730347 202.720749,418.282471 204.072449,425.193787 
	C204.159103,425.636871 204.595123,426.011597 204.641800,426.736115 
z"/>
<path fill="#FFFFFF" opacity="1.000000" stroke="none" 
	d="
M349.999695,454.430176 
	C349.907379,458.290131 349.868256,461.150726 353.606018,463.622772 
	C357.687592,466.322266 356.855896,473.862244 353.007874,477.503052 
	C349.218414,481.088501 343.405090,480.811981 339.454163,476.858398 
	C335.858673,473.260498 336.197327,467.010162 340.188873,463.300110 
	C344.167725,459.601837 344.255768,455.761749 340.415436,451.910339 
	C335.478851,446.959473 330.600525,441.945404 325.511292,437.156006 
	C324.443512,436.151123 322.397400,435.283783 321.095764,435.592224 
	C316.497681,436.681824 312.742554,434.610718 311.369415,431.141510 
	C310.105865,427.949341 310.092804,423.040619 311.765778,420.210266 
	C313.962769,416.493378 318.778778,415.846130 323.121521,417.678528 
	C327.107300,419.360260 329.908051,422.529449 328.810852,426.832520 
	C327.885529,430.461578 329.491364,432.094147 331.597504,434.146698 
	C336.962738,439.375336 342.268097,444.667633 347.493286,450.035828 
	C348.562012,451.133728 349.175873,452.674438 349.999695,454.430176 
z"/>
<path fill="#FFFFFF" opacity="1.000000" stroke="none" 
	d="
M251.766754,462.609009 
	C248.766495,463.966858 245.940521,465.867889 243.181198,465.775604 
	C239.749008,465.660858 237.445892,466.453094 235.401672,469.040466 
	C234.172989,470.595612 232.646606,471.925568 231.190247,473.288635 
	C228.652542,475.663849 227.679810,477.463654 231.389130,480.121429 
	C236.183472,483.556519 236.257553,490.297852 232.222595,494.276550 
	C228.321838,498.123016 221.981964,497.900177 218.287704,493.786743 
	C214.533234,489.606262 215.079468,483.523254 219.522034,479.825378 
	C220.284805,479.190491 221.592850,478.491608 221.612381,477.793274 
	C221.826340,470.144470 229.126968,467.841766 232.690140,462.760132 
	C233.479950,461.633789 234.542267,459.992126 234.246552,458.931305 
	C232.849670,453.920258 235.748581,450.561127 239.192429,448.696075 
	C241.711975,447.331543 246.038727,447.260986 248.610687,448.532990 
	C252.136932,450.277039 254.235916,454.058289 253.001419,458.592987 
	C252.667252,459.820435 252.314728,461.042908 251.766754,462.609009 
z"/>
<path fill="#FFFFFF" opacity="1.000000" stroke="none" 
	d="
M286.770477,468.272156 
	C289.141174,471.075165 292.774078,472.633209 292.137573,476.988800 
	C292.026642,477.747772 293.268646,479.078308 294.190491,479.552185 
	C299.343048,482.201202 299.055756,487.092743 297.715515,491.029510 
	C296.508179,494.575867 293.099518,497.374054 288.481720,497.002319 
	C283.608673,496.610077 280.590973,493.349487 279.316528,489.325958 
	C277.987549,485.130341 280.412354,481.542175 283.997925,479.002228 
	C284.654297,478.537231 285.314667,478.077942 286.655304,477.137573 
	C282.788483,473.291290 279.264526,469.401794 275.273956,466.071472 
	C274.199585,465.174896 271.707092,466.002380 269.865753,465.995361 
	C263.931274,465.972717 260.547119,461.936310 261.000427,455.446259 
	C261.347137,450.481903 266.116821,446.389374 271.045197,447.027924 
	C275.883667,447.654846 280.036377,450.968536 279.637878,455.213074 
	C279.029114,461.697327 283.025146,464.431946 286.770477,468.272156 
z"/>
<path fill="#FFFFFF" opacity="1.000000" stroke="none" 
	d="
M476.268250,204.999969 
	C482.856567,205.015289 486.309601,207.612915 486.997253,212.752640 
	C487.720367,218.157257 484.990601,222.246796 479.664551,223.738190 
	C473.638123,225.425735 467.359070,219.926651 468.145355,213.109238 
	C468.454010,210.433228 467.651550,209.020035 465.952881,207.415771 
	C461.967133,203.651627 458.910736,198.991791 451.982697,199.731216 
	C448.078247,200.147949 444.384308,193.680786 445.007050,189.476532 
	C445.586945,185.561905 451.168732,180.889465 455.130890,181.002014 
	C459.623138,181.129623 463.635956,185.238983 464.055237,189.746506 
	C464.285828,192.226288 464.315948,195.348389 465.780609,196.957062 
	C468.635742,200.092896 472.435944,202.368256 476.268250,204.999969 
z"/>
<path fill="#FFFFFF" opacity="1.000000" stroke="none" 
	d="
M419.586060,254.075516 
	C416.951355,248.662323 418.135803,244.338333 422.585144,241.000534 
	C425.869446,238.536758 429.086456,238.728867 432.795746,240.851318 
	C436.656891,243.060669 437.618530,246.544388 437.230652,250.003525 
	C436.843781,253.453461 437.660553,255.076172 440.380371,257.169037 
	C444.249084,260.145874 447.039673,263.802429 453.024384,263.301697 
	C457.365051,262.938477 460.792236,269.527985 459.992615,274.493530 
	C459.315216,278.700195 454.507446,282.313141 450.005310,281.998810 
	C445.451111,281.680847 440.536682,276.992676 441.141388,272.335999 
	C442.156219,264.521240 434.685852,263.013092 431.667633,258.267548 
	C431.492584,257.992310 430.625214,257.863190 430.268799,258.042053 
	C425.484131,260.443237 422.718018,257.314270 419.586060,254.075516 
z"/>
<path fill="#FFFFFF" opacity="1.000000" stroke="none" 
	d="
M76.756393,263.741913 
	C73.768135,266.198761 72.284691,268.522034 72.821335,272.554749 
	C73.523445,277.830841 68.735649,282.077026 63.384907,281.999634 
	C57.960197,281.921143 53.963581,277.830109 54.000023,272.393005 
	C54.039078,266.565918 57.527378,262.503632 63.112366,263.130829 
	C70.638855,263.976135 73.087883,257.700226 77.238144,253.928177 
	C78.106560,253.138901 77.009392,250.316223 77.022636,248.432007 
	C77.059395,243.202637 81.284149,238.893738 86.151611,239.002243 
	C91.598251,239.123672 96.451920,244.480637 95.999229,249.871033 
	C95.583664,254.819489 90.939240,258.624756 85.743690,257.971252 
	C81.184792,257.397827 79.749855,261.391144 76.756393,263.741913 
z"/>
<path fill="#FFFFFF" opacity="1.000000" stroke="none" 
	d="
M45.999985,214.199890 
	C45.453362,220.213440 42.514320,223.406311 37.351639,223.997864 
	C33.785828,224.406448 28.358789,221.024292 27.220863,217.684326 
	C25.870544,213.720947 28.043201,207.993958 31.957491,205.670273 
	C32.855717,205.137054 34.107319,205.060028 35.204689,205.023209 
	C44.527054,204.710297 49.757298,199.519760 50.000027,190.265549 
	C50.130474,185.292252 54.107277,181.138748 58.869423,181.002075 
	C63.774738,180.861298 68.833862,185.678391 68.999878,190.647903 
	C69.170860,195.766022 65.173492,199.835526 59.813572,199.999985 
	C56.423763,200.103989 46.429634,206.962204 45.542236,210.078552 
	C45.227180,211.184967 45.821041,212.550171 45.999985,214.199890 
z"/>
<path fill="#FFFFFF" opacity="1.000000" stroke="none" 
	d="
M169.000000,372.000000 
	C169.000000,364.202545 169.000000,356.905060 169.000000,349.064697 
	C173.560501,352.358521 176.442917,355.677551 176.125351,361.593170 
	C175.645142,370.539062 175.991272,379.529785 176.004364,388.501434 
	C176.009476,392.001129 176.377060,394.482605 181.285126,393.161407 
	C185.754028,391.958374 191.507614,397.176971 191.998825,401.974792 
	C192.492920,406.800842 187.790207,412.517303 182.946945,412.977875 
	C177.776749,413.469604 172.919174,408.917969 173.064316,403.340546 
	C173.146225,400.192963 172.697220,397.627625 170.136246,395.436188 
	C169.259598,394.686066 169.071426,392.809540 169.047852,391.439392 
	C168.939316,385.127838 169.000000,378.813416 169.000000,372.000000 
z"/>
<path fill="#FFFFFF" opacity="1.000000" stroke="none" 
	d="
M125.000000,257.106201 
	C125.000000,253.961166 125.000000,251.298325 125.000000,248.017685 
	C129.048477,251.364090 132.718094,253.905136 132.146896,259.944916 
	C131.507202,266.708984 131.824066,273.586517 132.072113,280.402039 
	C132.201721,283.963867 131.613602,286.895447 128.523743,288.982513 
	C125.465729,291.048096 124.745354,293.941986 124.922165,297.541687 
	C125.197540,303.147858 121.171944,306.978058 115.563652,307.000000 
	C110.159164,307.021149 105.963661,302.829285 106.000298,297.444977 
	C106.037369,291.996490 109.973923,288.115784 115.581200,288.000031 
	C121.552788,287.876709 124.998993,284.424072 124.999779,278.561401 
	C125.000717,271.570404 125.000000,264.579376 125.000000,257.106201 
z"/>
<path fill="#FFFFFF" opacity="1.000000" stroke="none" 
	d="
M339.000000,359.351990 
	C340.443359,355.557465 341.886688,352.220734 343.330017,348.884033 
	C343.886536,349.081696 344.443024,349.279358 344.999512,349.477020 
	C344.999512,363.872406 345.985107,378.373932 344.452332,392.604218 
	C343.932404,397.431274 341.683868,403.098236 339.791412,408.205231 
	C338.379913,412.014282 332.043121,413.629211 328.082520,411.983643 
	C323.888611,410.241150 320.859497,404.110565 322.261688,400.202911 
	C323.713409,396.157227 329.839417,391.983246 333.382202,393.217255 
	C338.060913,394.846924 338.959686,392.438171 338.980988,388.774048 
	C339.037079,379.119598 338.999969,369.464600 339.000000,359.351990 
z"/>
<path fill="#FFFFFF" opacity="1.000000" stroke="none" 
	d="
M389.002502,295.630859 
	C388.350891,293.669098 388.128235,291.550049 386.961578,290.636200 
	C383.589905,287.995178 382.750885,284.806641 382.918701,280.705536 
	C383.210876,273.564789 383.370667,266.377655 382.875397,259.259399 
	C382.519257,254.141235 384.664673,251.002609 389.000000,248.004364 
	C389.000000,258.711273 388.984894,268.943054 389.006805,279.174774 
	C389.016815,283.845215 392.923889,287.893768 397.444550,288.000000 
	C404.371704,288.162781 407.972504,291.560242 407.999878,297.959167 
	C408.021271,302.959808 403.800751,306.989288 398.530365,307.000000 
	C392.430878,307.012390 389.035248,303.101593 389.002502,295.630859 
z"/>
<path fill="#FFFFFF" opacity="1.000000" stroke="none" 
	d="
M150.594025,137.429779 
	C150.885223,136.890091 151.324783,136.575195 151.764343,136.260300 
	C151.723892,136.799957 151.683441,137.339615 151.362595,137.975891 
	C150.968933,137.933212 150.855652,137.793900 150.594025,137.429779 
z"/>
<path fill="#FFFFFF" opacity="1.000000" stroke="none" 
	d="
M360.066193,134.138138 
	C360.366852,133.690475 360.906097,133.527847 360.956879,133.623734 
	C361.126129,133.943573 361.120239,134.356094 361.181458,134.733109 
	C360.814636,134.669266 360.447815,134.605438 360.066193,134.138138 
z"/>
<path fill="#000000" opacity="1.000000" stroke="none" 
	d="
M323.925232,228.920074 
	C313.626648,232.436569 303.307434,235.894073 293.035126,239.485657 
	C282.154968,243.289764 271.349457,247.309845 260.437012,251.016754 
	C258.442749,251.694199 255.858231,251.995514 253.942902,251.329529 
	C237.763519,245.703659 221.675919,239.813828 205.561691,234.000702 
	C200.624130,232.219498 195.689453,230.430252 190.128494,229.504196 
	C192.020569,231.770615 193.799194,234.144409 195.824921,236.284317 
	C203.455322,244.344894 210.676559,252.887299 218.988510,260.180908 
	C226.850266,267.079437 235.943665,272.563751 244.351761,278.861786 
	C245.631653,279.820465 246.957550,281.881592 246.843872,283.320801 
	C246.488998,287.814484 244.869537,292.246674 244.810287,296.716888 
	C244.703003,304.810333 237.992096,307.150208 233.160416,310.899780 
	C218.438416,322.324646 203.434341,333.386017 188.296417,344.772095 
	C180.811691,336.649353 173.115875,328.375946 165.564621,319.972626 
	C164.864120,319.193054 164.722321,317.524048 164.927856,316.376709 
	C167.404068,302.555023 170.031281,288.760284 172.476151,274.933228 
	C172.645309,273.976593 171.938766,272.573212 171.200516,271.792816 
	C163.116562,263.246674 154.902588,254.823578 146.814072,246.281708 
	C142.165497,241.372574 137.681793,236.307358 132.722000,230.872025 
	C140.925171,219.536804 149.240799,208.046188 157.596649,196.500000 
	C155.056000,189.606125 152.389404,182.617676 149.960571,175.547546 
	C149.533493,174.304352 149.609589,172.408066 150.284866,171.338303 
	C160.849960,154.601120 171.808121,138.105789 182.072983,121.189003 
	C185.347321,115.792809 190.382385,116.332596 194.958832,115.083122 
	C198.997757,113.980408 203.211426,113.451378 207.380051,112.921883 
	C209.113708,112.701675 211.342926,112.512177 212.646744,113.371239 
	C227.451538,123.125946 242.120667,133.086563 256.889160,143.034592 
	C269.821808,133.938171 283.013641,125.188942 295.529968,115.561531 
	C299.769073,112.300888 303.673309,112.444786 307.964905,113.105659 
	C314.652374,114.135468 321.293365,115.541077 327.877838,117.107704 
	C329.303864,117.446991 330.760162,118.918724 331.605316,120.248436 
	C342.387878,137.212616 353.098572,154.223053 363.687439,171.308533 
	C364.475159,172.579529 364.779999,174.717972 364.302307,176.106766 
	C362.221924,182.154938 359.681671,188.043701 357.525177,194.067978 
	C357.097290,195.263275 357.106934,197.166122 357.787048,198.122269 
	C364.910736,208.137527 372.101074,218.111008 379.547516,227.886902 
	C381.274628,230.154297 381.166809,231.318863 379.318665,233.257797 
	C368.829010,244.262543 358.925049,255.878830 347.853851,266.254120 
	C342.070679,271.673737 341.625641,276.801483 343.182281,283.657379 
	C345.750305,294.967682 347.762085,306.405945 349.869720,317.815887 
	C350.036560,318.719025 349.402069,320.129395 348.673035,320.783783 
	C340.403015,328.207214 332.041931,335.529144 323.457153,343.096924 
	C314.825775,336.509552 304.035828,328.246552 293.213928,320.025726 
	C286.119385,314.636383 278.964783,309.326050 271.879791,303.924347 
	C271.179474,303.390381 270.437988,302.525757 270.291382,301.711029 
	C269.116791,295.183380 267.968323,288.645142 267.128326,282.069733 
	C267.007599,281.124603 268.364807,279.644806 269.399323,278.951324 
	C280.068512,271.799255 291.252197,265.428528 299.986420,255.630264 
	C307.808563,246.855240 316.200256,238.587936 324.780975,229.646835 
	C325.352875,228.861740 325.484528,228.526443 325.616150,228.191132 
	C325.052521,228.434113 324.488861,228.677094 323.925232,228.920074 
M205.005692,184.508850 
	C198.517029,183.566406 192.028366,182.623947 185.539703,181.681503 
	C192.731995,188.457642 200.175232,194.343384 207.838745,199.926819 
	C211.440353,202.550873 215.541092,202.779892 218.456589,198.890869 
	C221.087326,195.381699 223.042984,191.366440 225.493515,187.242569 
	C218.407532,186.422943 212.099274,185.693253 205.005692,184.508850 
M321.638092,188.031204 
	C324.040710,186.267548 326.443298,184.503876 328.845917,182.740219 
	C328.647278,182.400085 328.448669,182.059952 328.250031,181.719818 
	C315.201752,183.626175 302.153473,185.532532 288.864929,187.473999 
	C291.057892,191.344406 292.952728,195.024734 295.166351,198.502136 
	C297.432465,202.062027 301.684082,202.832840 305.151031,200.336075 
	C310.515533,196.472824 315.747192,192.425049 321.638092,188.031204 
z"/>
<path fill="#000000" opacity="1.000000" stroke="none" 
	d="
M214.429779,245.405975 
	C213.890091,245.114792 213.575211,244.675232 213.260315,244.235672 
	C213.799988,244.276108 214.339630,244.316559 214.975906,244.637405 
	C214.933212,245.031067 214.793900,245.144348 214.429779,245.405975 
z"/>
<path fill="#000000" opacity="1.000000" stroke="none" 
	d="
M299.130402,245.094543 
	C299.488892,244.677124 300.052521,244.434143 300.616150,244.191162 
	C300.484528,244.526443 300.352875,244.861740 299.998474,245.388275 
	C299.628998,245.475998 299.482269,245.372482 299.130402,245.094543 
z"/>
<path fill="#000000" opacity="1.000000" stroke="none" 
	d="
M226.948822,345.003143 
	C233.857910,341.165314 241.080109,338.179749 246.762177,333.373444 
	C256.161011,325.423218 263.347321,331.220062 271.066650,335.575836 
	C283.933868,342.836426 296.766418,350.158508 309.791779,357.555939 
	C304.057465,366.561920 298.251587,375.680237 292.256042,385.096466 
	C290.667206,382.213654 289.203552,379.557983 287.265106,376.040771 
	C277.018951,385.579193 267.171173,394.746796 256.976196,404.237579 
	C247.226791,395.007690 237.406082,385.710297 227.260513,376.105377 
	C225.630569,378.670532 223.972015,381.280731 221.776230,384.736450 
	C215.960983,375.629547 210.321762,366.798309 204.392761,357.513245 
	C212.048248,353.206604 219.309082,349.121948 226.948822,345.003143 
z"/>
<path fill="#FFFFFF" opacity="1.000000" stroke="none" 
	d="
M205.398346,184.736206 
	C212.099274,185.693253 218.407532,186.422943 225.493515,187.242569 
	C223.042984,191.366440 221.087326,195.381699 218.456589,198.890869 
	C215.541092,202.779892 211.440353,202.550873 207.838745,199.926819 
	C200.175232,194.343384 192.731995,188.457642 185.539703,181.681503 
	C192.028366,182.623947 198.517029,183.566406 205.398346,184.736206 
z"/>
<path fill="#FFFFFF" opacity="1.000000" stroke="none" 
	d="
M321.336609,188.243362 
	C315.747192,192.425049 310.515533,196.472824 305.151031,200.336075 
	C301.684082,202.832840 297.432465,202.062027 295.166351,198.502136 
	C292.952728,195.024734 291.057892,191.344406 288.864929,187.473999 
	C302.153473,185.532532 315.201752,183.626175 328.250031,181.719818 
	C328.448669,182.059952 328.647278,182.400085 328.845917,182.740219 
	C326.443298,184.503876 324.040710,186.267548 321.336609,188.243362 
z"/>
<path fill="#FFFFFF" opacity="1.000000" stroke="none" 
	d="
M324.130402,229.094513 
	C324.488861,228.677094 325.052521,228.434113 325.616150,228.191132 
	C325.484528,228.526443 325.352875,228.861740 324.998474,229.388275 
	C324.628998,229.475998 324.482269,229.372482 324.130402,229.094513 
z"/>
</svg>